<svg width="1600" height="892" viewBox="0 0 1600 892" fill="none" xmlns="http://www.w3.org/2000/svg">
<rect x="-106" y="-33" width="624" height="178" rx="89" fill="url(#paint0_linear_0_1523)"/>
<rect opacity="0.4" x="-68" y="717" width="425" height="175" rx="87.5" fill="url(#paint1_linear_0_1523)"/>
<rect x="-54" y="117" width="227" height="122" rx="61" fill="url(#paint2_linear_0_1523)"/>
<rect x="392" y="608" width="251" height="100" rx="50" fill="url(#paint3_linear_0_1523)"/>
<rect opacity="0.4" x="390" y="748" width="211" height="51" rx="25.5" fill="url(#paint4_linear_0_1523)"/>
<rect x="-51" y="737" width="211" height="51" rx="25.5" fill="url(#paint5_linear_0_1523)"/>
<rect opacity="0.6" x="-340" y="386" width="500" height="189" rx="94.5" fill="url(#paint6_linear_0_1523)"/>
<path d="M778.379 241.63C753.65 241.63 733.572 221.679 733.572 197.1C733.572 172.531 753.65 152.577 778.379 152.577H1307.62C1332.35 152.577 1352.43 172.531 1352.43 197.1C1352.43 221.679 1332.35 241.63 1307.62 241.63H778.379ZM1276.99 603.052C1294.94 586.261 1323.25 587.097 1340.14 604.946C1357.04 622.795 1356.2 650.907 1338.24 667.698C1296.85 706.301 1250.07 737.049 1199.65 757.943C1150.33 778.351 1097.58 789.423 1043 789.423C988.416 789.423 935.671 778.351 886.343 757.943C835.923 737.049 789.146 706.301 747.76 667.698C729.797 650.907 728.956 622.795 745.854 604.946C762.752 587.097 791.052 586.261 809.005 603.052C842.564 634.361 880.239 659.178 920.639 675.905C958.96 691.756 1000.13 700.38 1043 700.38C1085.86 700.38 1127.04 691.756 1165.36 675.905C1205.76 659.181 1243.44 634.361 1276.99 603.052ZM1288.71 376.046C1311 365.669 1337.6 375.274 1348.05 397.435C1358.49 419.586 1358.35 466.489 1336.06 476.866C1295.37 495.837 1244.87 512.521 1196.13 522.582C1149.04 532.331 1094.41 515.513 1043 515.513C991.59 515.513 941.525 510.221 894.427 500.472C845.703 490.407 800.113 475.329 759.467 456.398C737.175 446.022 707.092 409.959 717.531 387.808C727.974 365.648 784.536 345.208 806.838 355.585C841.123 371.577 875.066 382.722 917.19 391.413C963.058 398.986 965.41 399.276 1016.2 403.348C1062.16 403.348 1132.86 421.903 1173.37 413.524C1215.49 404.83 1254.44 391.998 1288.71 376.046Z" fill="#2F3A5F"/>
<path fill-rule="evenodd" clip-rule="evenodd" d="M886.343 757.943C835.923 737.049 789.146 706.301 747.76 667.698C729.797 650.907 728.956 622.795 745.854 604.946C762.752 587.097 791.052 586.261 809.005 603.052C842.564 634.361 880.239 659.178 920.639 675.905C958.96 691.756 1000.13 700.38 1043 700.38C1085.86 700.38 1127.04 691.756 1165.36 675.905C1205.76 659.181 1243.44 634.361 1276.99 603.052C1294.94 586.261 1323.25 587.097 1340.14 604.946C1357.04 622.795 1356.2 650.907 1338.24 667.698C1296.85 706.301 1250.07 737.049 1199.65 757.943C1150.33 778.351 1097.58 789.423 1043 789.423C988.416 789.423 935.671 778.351 886.343 757.943ZM1261.58 586.56L1261.57 586.562C1229.83 616.18 1194.41 639.443 1156.73 655.043C1121.04 669.805 1082.79 677.804 1043 677.804C1003.21 677.804 964.959 669.806 929.273 655.046C891.582 639.44 856.161 616.172 824.403 586.545L824.401 586.543C797.399 561.309 754.904 562.551 729.463 589.423C703.963 616.359 705.226 658.839 732.347 684.192L732.356 684.201L732.365 684.209C775.576 724.513 824.608 756.797 877.703 778.801L877.715 778.806C929.655 800.294 985.324 812 1043 812C1100.67 812 1156.35 800.294 1208.28 778.806L1208.29 778.801C1261.39 756.797 1310.42 724.514 1353.63 684.208L1353.64 684.2L1353.65 684.192C1380.77 658.839 1382.03 616.359 1356.53 589.423C1331.09 562.544 1288.58 561.308 1261.58 586.56ZM809.005 387.806L806.838 355.585C839.402 370.774 876.636 383.046 917.19 391.413L917.201 391.415C956.145 399.471 998.505 403.887 1043 403.887C1087.49 403.887 1129.85 399.471 1168.8 391.415L1168.81 391.413C1209.35 383.045 1246.62 370.736 1279.19 355.578C1312.69 339.982 1352.7 354.356 1368.46 387.806C1384.29 421.384 1369.58 461.26 1336.06 476.866M1348.05 397.435C1337.6 375.274 1311 365.669 1288.71 376.046C1254.44 391.998 1215.49 404.83 1173.37 413.524C1132.86 421.903 1062.16 403.348 1016.2 403.348C965.41 399.276 963.058 398.986 917.19 391.413C875.066 382.722 841.123 371.577 806.838 355.585C784.536 345.208 727.974 365.648 717.531 387.808C707.092 409.959 737.175 446.022 759.467 456.398C800.113 475.329 845.703 490.407 894.427 500.472C941.525 510.221 991.59 515.513 1043 515.513C1094.41 515.513 1149.04 532.331 1196.13 522.582C1244.87 512.521 1295.37 495.837 1336.06 476.866C1358.35 466.489 1358.49 419.586 1348.05 397.435ZM1196.13 522.582C1147.54 532.641 1095.94 538.09 1043 538.09C990.058 538.09 938.463 532.641 889.861 522.582C839.521 512.183 792.256 496.574 749.938 476.865C716.417 461.258 701.708 421.385 717.531 387.809M1196.13 522.582C1246.47 512.189 1293.69 496.619 1336.06 476.867ZM806.838 355.585L809.005 387.806ZM778.379 264.206C741.321 264.206 711 234.284 711 197.1C711 159.925 741.322 130 778.379 130H1307.62C1344.67 130 1375 159.924 1375 197.1C1375 234.284 1344.68 264.206 1307.62 264.206H778.379ZM806.838 355.585C773.329 339.994 733.297 354.354 717.531 387.808ZM733.572 197.1C733.572 221.679 753.65 241.63 778.379 241.63H1307.62C1332.35 241.63 1352.43 221.679 1352.43 197.1C1352.43 172.531 1332.35 152.577 1307.62 152.577H778.379C753.65 152.577 733.572 172.531 733.572 197.1Z" fill="#2F3A5F"/>
<circle opacity="0.5" cx="780" cy="197" r="45" stroke="url(#paint7_linear_0_1523)" stroke-width="2"/>
<circle opacity="0.5" cx="780" cy="638" r="45" stroke="url(#paint8_linear_0_1523)" stroke-width="2"/>
<g clip-path="url(#clip0_0_1523)">
<path d="M847.823 319.915C848.897 319.915 849.768 319.044 849.768 317.971C849.768 316.897 848.897 316.026 847.823 316.026C846.749 316.026 845.879 316.897 845.879 317.971C845.879 319.044 846.749 319.915 847.823 319.915Z" fill="#1AC3DA"/>
<path d="M883.71 319.915C884.784 319.915 885.655 319.044 885.655 317.971C885.655 316.897 884.784 316.026 883.71 316.026C882.636 316.026 881.766 316.897 881.766 317.971C881.766 319.044 882.636 319.915 883.71 319.915Z" fill="#1AC3DA"/>
<path d="M919.601 319.915C920.675 319.915 921.545 319.044 921.545 317.971C921.545 316.897 920.675 316.026 919.601 316.026C918.527 316.026 917.656 316.897 917.656 317.971C917.656 319.044 918.527 319.915 919.601 319.915Z" fill="#1AC3DA"/>
<path d="M955.491 319.915C956.565 319.915 957.436 319.044 957.436 317.971C957.436 316.897 956.565 316.026 955.491 316.026C954.417 316.026 953.547 316.897 953.547 317.971C953.547 319.044 954.417 319.915 955.491 319.915Z" fill="#1AC3DA"/>
<path d="M847.823 355.804C848.897 355.804 849.768 354.933 849.768 353.859C849.768 352.786 848.897 351.915 847.823 351.915C846.749 351.915 845.879 352.786 845.879 353.859C845.879 354.933 846.749 355.804 847.823 355.804Z" fill="#1AC3DA"/>
<path d="M883.71 355.804C884.784 355.804 885.655 354.933 885.655 353.859C885.655 352.786 884.784 351.915 883.71 351.915C882.636 351.915 881.766 352.786 881.766 353.859C881.766 354.933 882.636 355.804 883.71 355.804Z" fill="#1AC3DA"/>
<path d="M919.601 355.804C920.675 355.804 921.545 354.933 921.545 353.859C921.545 352.786 920.675 351.915 919.601 351.915C918.527 351.915 917.656 352.786 917.656 353.859C917.656 354.933 918.527 355.804 919.601 355.804Z" fill="#1AC3DA"/>
<path d="M955.491 355.804C956.565 355.804 957.436 354.933 957.436 353.859C957.436 352.786 956.565 351.915 955.491 351.915C954.417 351.915 953.547 352.786 953.547 353.859C953.547 354.933 954.417 355.804 955.491 355.804Z" fill="#1AC3DA"/>
<path d="M849.768 389.818C849.768 390.929 848.865 391.762 847.823 391.762C846.712 391.762 845.879 390.86 845.879 389.818C845.879 388.707 846.782 387.804 847.823 387.804C848.934 387.804 849.768 388.707 849.768 389.818Z" fill="#1AC3DA"/>
<path d="M885.655 389.818C885.655 390.929 884.752 391.762 883.71 391.762C882.599 391.762 881.766 390.86 881.766 389.818C881.766 388.707 882.668 387.873 883.71 387.873C884.752 387.804 885.655 388.707 885.655 389.818Z" fill="#1AC3DA"/>
<path d="M921.545 389.818C921.545 390.929 920.642 391.762 919.601 391.762C918.559 391.762 917.656 390.859 917.656 389.818C917.656 388.707 918.559 387.873 919.601 387.873C920.642 387.873 921.545 388.707 921.545 389.818Z" fill="#1AC3DA"/>
<path d="M957.436 389.818C957.436 390.929 956.533 391.762 955.491 391.762C954.38 391.762 953.547 390.86 953.547 389.818C953.547 388.707 954.45 387.873 955.491 387.873C956.602 387.804 957.436 388.707 957.436 389.818Z" fill="#1AC3DA"/>
<path d="M849.768 425.71C849.768 426.822 848.865 427.655 847.823 427.655C846.712 427.655 845.879 426.752 845.879 425.71C845.879 424.599 846.782 423.766 847.823 423.766C848.934 423.697 849.768 424.599 849.768 425.71Z" fill="#1AC3DA"/>
<path d="M885.655 425.71C885.655 426.822 884.752 427.655 883.71 427.655C882.599 427.655 881.766 426.752 881.766 425.71C881.766 424.599 882.668 423.766 883.71 423.766C884.752 423.697 885.655 424.599 885.655 425.71Z" fill="#1AC3DA"/>
<path d="M921.545 425.71C921.545 426.821 920.642 427.655 919.601 427.655C918.559 427.655 917.656 426.752 917.656 425.71C917.656 424.599 918.559 423.766 919.601 423.766C920.642 423.766 921.545 424.599 921.545 425.71Z" fill="#1AC3DA"/>
<path d="M957.436 425.71C957.436 426.822 956.533 427.655 955.491 427.655C954.38 427.655 953.547 426.752 953.547 425.71C953.547 424.599 954.45 423.766 955.491 423.766C956.602 423.697 957.436 424.599 957.436 425.71Z" fill="#1AC3DA"/>
</g>
<g clip-path="url(#clip1_0_1523)">
<path d="M1365.82 628.915C1366.9 628.915 1367.77 628.044 1367.77 626.971C1367.77 625.897 1366.9 625.026 1365.82 625.026C1364.75 625.026 1363.88 625.897 1363.88 626.971C1363.88 628.044 1364.75 628.915 1365.82 628.915Z" fill="#1AC3DA"/>
<path d="M1401.71 628.915C1402.78 628.915 1403.65 628.044 1403.65 626.971C1403.65 625.897 1402.78 625.026 1401.71 625.026C1400.64 625.026 1399.77 625.897 1399.77 626.971C1399.77 628.044 1400.64 628.915 1401.71 628.915Z" fill="#1AC3DA"/>
<path d="M1437.6 628.915C1438.67 628.915 1439.55 628.044 1439.55 626.971C1439.55 625.897 1438.67 625.026 1437.6 625.026C1436.53 625.026 1435.66 625.897 1435.66 626.971C1435.66 628.044 1436.53 628.915 1437.6 628.915Z" fill="#1AC3DA"/>
<path d="M1473.49 628.915C1474.57 628.915 1475.44 628.044 1475.44 626.971C1475.44 625.897 1474.57 625.026 1473.49 625.026C1472.42 625.026 1471.55 625.897 1471.55 626.971C1471.55 628.044 1472.42 628.915 1473.49 628.915Z" fill="#1AC3DA"/>
<path d="M1365.82 664.804C1366.9 664.804 1367.77 663.933 1367.77 662.859C1367.77 661.786 1366.9 660.915 1365.82 660.915C1364.75 660.915 1363.88 661.786 1363.88 662.859C1363.88 663.933 1364.75 664.804 1365.82 664.804Z" fill="#1AC3DA"/>
<path d="M1401.71 664.804C1402.78 664.804 1403.65 663.933 1403.65 662.859C1403.65 661.786 1402.78 660.915 1401.71 660.915C1400.64 660.915 1399.77 661.786 1399.77 662.859C1399.77 663.933 1400.64 664.804 1401.71 664.804Z" fill="#1AC3DA"/>
<path d="M1437.6 664.804C1438.67 664.804 1439.55 663.933 1439.55 662.859C1439.55 661.786 1438.67 660.915 1437.6 660.915C1436.53 660.915 1435.66 661.786 1435.66 662.859C1435.66 663.933 1436.53 664.804 1437.6 664.804Z" fill="#1AC3DA"/>
<path d="M1473.49 664.804C1474.57 664.804 1475.44 663.933 1475.44 662.859C1475.44 661.786 1474.57 660.915 1473.49 660.915C1472.42 660.915 1471.55 661.786 1471.55 662.859C1471.55 663.933 1472.42 664.804 1473.49 664.804Z" fill="#1AC3DA"/>
<path d="M1367.77 698.818C1367.77 699.929 1366.87 700.762 1365.82 700.762C1364.71 700.762 1363.88 699.86 1363.88 698.818C1363.88 697.707 1364.78 696.804 1365.82 696.804C1366.93 696.804 1367.77 697.707 1367.77 698.818Z" fill="#1AC3DA"/>
<path d="M1403.65 698.818C1403.65 699.929 1402.75 700.762 1401.71 700.762C1400.6 700.762 1399.77 699.86 1399.77 698.818C1399.77 697.707 1400.67 696.873 1401.71 696.873C1402.75 696.804 1403.65 697.707 1403.65 698.818Z" fill="#1AC3DA"/>
<path d="M1439.55 698.818C1439.55 699.929 1438.64 700.762 1437.6 700.762C1436.56 700.762 1435.66 699.859 1435.66 698.818C1435.66 697.707 1436.56 696.873 1437.6 696.873C1438.64 696.873 1439.55 697.707 1439.55 698.818Z" fill="#1AC3DA"/>
<path d="M1475.44 698.818C1475.44 699.929 1474.53 700.762 1473.49 700.762C1472.38 700.762 1471.55 699.86 1471.55 698.818C1471.55 697.707 1472.45 696.873 1473.49 696.873C1474.6 696.804 1475.44 697.707 1475.44 698.818Z" fill="#1AC3DA"/>
<path d="M1367.77 734.71C1367.77 735.822 1366.87 736.655 1365.82 736.655C1364.71 736.655 1363.88 735.752 1363.88 734.71C1363.88 733.599 1364.78 732.766 1365.82 732.766C1366.93 732.697 1367.77 733.599 1367.77 734.71Z" fill="#1AC3DA"/>
<path d="M1403.65 734.71C1403.65 735.822 1402.75 736.655 1401.71 736.655C1400.6 736.655 1399.77 735.752 1399.77 734.71C1399.77 733.599 1400.67 732.766 1401.71 732.766C1402.75 732.697 1403.65 733.599 1403.65 734.71Z" fill="#1AC3DA"/>
<path d="M1439.55 734.71C1439.55 735.821 1438.64 736.655 1437.6 736.655C1436.56 736.655 1435.66 735.752 1435.66 734.71C1435.66 733.599 1436.56 732.766 1437.6 732.766C1438.64 732.766 1439.55 733.599 1439.55 734.71Z" fill="#1AC3DA"/>
<path d="M1475.44 734.71C1475.44 735.822 1474.53 736.655 1473.49 736.655C1472.38 736.655 1471.55 735.752 1471.55 734.71C1471.55 733.599 1472.45 732.766 1473.49 732.766C1474.6 732.697 1475.44 733.599 1475.44 734.71Z" fill="#1AC3DA"/>
</g>
<g clip-path="url(#clip2_0_1523)">
<path d="M1508.82 628.915C1509.9 628.915 1510.77 628.044 1510.77 626.971C1510.77 625.897 1509.9 625.026 1508.82 625.026C1507.75 625.026 1506.88 625.897 1506.88 626.971C1506.88 628.044 1507.75 628.915 1508.82 628.915Z" fill="#1AC3DA"/>
<path d="M1544.71 628.915C1545.78 628.915 1546.65 628.044 1546.65 626.971C1546.65 625.897 1545.78 625.026 1544.71 625.026C1543.64 625.026 1542.77 625.897 1542.77 626.971C1542.77 628.044 1543.64 628.915 1544.71 628.915Z" fill="#1AC3DA"/>
<path d="M1580.6 628.915C1581.67 628.915 1582.55 628.044 1582.55 626.971C1582.55 625.897 1581.67 625.026 1580.6 625.026C1579.53 625.026 1578.66 625.897 1578.66 626.971C1578.66 628.044 1579.53 628.915 1580.6 628.915Z" fill="#1AC3DA"/>
<path d="M1508.82 664.804C1509.9 664.804 1510.77 663.933 1510.77 662.859C1510.77 661.786 1509.9 660.915 1508.82 660.915C1507.75 660.915 1506.88 661.786 1506.88 662.859C1506.88 663.933 1507.75 664.804 1508.82 664.804Z" fill="#1AC3DA"/>
<path d="M1544.71 664.804C1545.78 664.804 1546.65 663.933 1546.65 662.859C1546.65 661.786 1545.78 660.915 1544.71 660.915C1543.64 660.915 1542.77 661.786 1542.77 662.859C1542.77 663.933 1543.64 664.804 1544.71 664.804Z" fill="#1AC3DA"/>
<path d="M1580.6 664.804C1581.67 664.804 1582.55 663.933 1582.55 662.859C1582.55 661.786 1581.67 660.915 1580.6 660.915C1579.53 660.915 1578.66 661.786 1578.66 662.859C1578.66 663.933 1579.53 664.804 1580.6 664.804Z" fill="#1AC3DA"/>
<path d="M1510.77 698.818C1510.77 699.929 1509.87 700.762 1508.82 700.762C1507.71 700.762 1506.88 699.86 1506.88 698.818C1506.88 697.707 1507.78 696.804 1508.82 696.804C1509.93 696.804 1510.77 697.707 1510.77 698.818Z" fill="#1AC3DA"/>
<path d="M1546.65 698.818C1546.65 699.929 1545.75 700.762 1544.71 700.762C1543.6 700.762 1542.77 699.86 1542.77 698.818C1542.77 697.707 1543.67 696.873 1544.71 696.873C1545.75 696.804 1546.65 697.707 1546.65 698.818Z" fill="#1AC3DA"/>
<path d="M1582.55 698.818C1582.55 699.929 1581.64 700.762 1580.6 700.762C1579.56 700.762 1578.66 699.859 1578.66 698.818C1578.66 697.707 1579.56 696.873 1580.6 696.873C1581.64 696.873 1582.55 697.707 1582.55 698.818Z" fill="#1AC3DA"/>
<path d="M1510.77 734.71C1510.77 735.822 1509.87 736.655 1508.82 736.655C1507.71 736.655 1506.88 735.752 1506.88 734.71C1506.88 733.599 1507.78 732.766 1508.82 732.766C1509.93 732.697 1510.77 733.599 1510.77 734.71Z" fill="#1AC3DA"/>
<path d="M1546.65 734.71C1546.65 735.822 1545.75 736.655 1544.71 736.655C1543.6 736.655 1542.77 735.752 1542.77 734.71C1542.77 733.599 1543.67 732.766 1544.71 732.766C1545.75 732.697 1546.65 733.599 1546.65 734.71Z" fill="#1AC3DA"/>
<path d="M1582.55 734.71C1582.55 735.821 1581.64 736.655 1580.6 736.655C1579.56 736.655 1578.66 735.752 1578.66 734.71C1578.66 733.599 1579.56 732.766 1580.6 732.766C1581.64 732.766 1582.55 733.599 1582.55 734.71Z" fill="#1AC3DA"/>
</g>
<defs>
<linearGradient id="paint0_linear_0_1523" x1="518.002" y1="55.31" x2="-32.7543" y2="55.31" gradientUnits="userSpaceOnUse">
<stop stop-color="#2F3A5F"/>
<stop offset="1" stop-color="#2F3A5F" stop-opacity="0"/>
</linearGradient>
<linearGradient id="paint1_linear_0_1523" x1="357.001" y1="803.822" x2="-18.1131" y2="803.822" gradientUnits="userSpaceOnUse">
<stop stop-color="#2F3A5F"/>
<stop offset="1" stop-color="#2F3A5F" stop-opacity="0"/>
</linearGradient>
<linearGradient id="paint2_linear_0_1523" x1="173.001" y1="177.527" x2="-27.3545" y2="177.527" gradientUnits="userSpaceOnUse">
<stop stop-color="#37446F"/>
<stop offset="1" stop-color="#2F3A5F" stop-opacity="0"/>
</linearGradient>
<linearGradient id="paint3_linear_0_1523" x1="643.001" y1="657.612" x2="421.463" y2="657.612" gradientUnits="userSpaceOnUse">
<stop stop-color="#2F3A5F"/>
<stop offset="1" stop-color="#2F3A5F" stop-opacity="0"/>
</linearGradient>
<linearGradient id="paint4_linear_0_1523" x1="601.001" y1="773.302" x2="414.767" y2="773.302" gradientUnits="userSpaceOnUse">
<stop stop-color="#2F3A5F"/>
<stop offset="1" stop-color="#2F3A5F" stop-opacity="0"/>
</linearGradient>
<linearGradient id="paint5_linear_0_1523" x1="160.001" y1="762.302" x2="-26.2326" y2="762.302" gradientUnits="userSpaceOnUse">
<stop stop-color="#2F3A5F"/>
<stop offset="1" stop-color="#2F3A5F" stop-opacity="0"/>
</linearGradient>
<linearGradient id="paint6_linear_0_1523" x1="160.001" y1="479.767" x2="-281.31" y2="479.767" gradientUnits="userSpaceOnUse">
<stop stop-color="#2F3A5F"/>
<stop offset="1" stop-color="#2F3A5F" stop-opacity="0"/>
</linearGradient>
<linearGradient id="paint7_linear_0_1523" x1="733.355" y1="197.945" x2="826.381" y2="197.595" gradientUnits="userSpaceOnUse">
<stop stop-color="#FF8C8F"/>
<stop offset="1" stop-color="#425CB4"/>
</linearGradient>
<linearGradient id="paint8_linear_0_1523" x1="733.355" y1="638.944" x2="826.381" y2="638.595" gradientUnits="userSpaceOnUse">
<stop stop-color="#FF8C8F"/>
<stop offset="1" stop-color="#425CB4"/>
</linearGradient>
<clipPath id="clip0_0_1523">
<rect width="112" height="112" fill="white" transform="translate(845.879 316.026)"/>
</clipPath>
<clipPath id="clip1_0_1523">
<rect width="112" height="112" fill="white" transform="translate(1363.88 625.026)"/>
</clipPath>
<clipPath id="clip2_0_1523">
<rect width="112" height="112" fill="white" transform="translate(1506.88 625.026)"/>
</clipPath>
</defs>
</svg>
