<svg width="699" height="559" viewBox="0 0 699 559" fill="none" xmlns="http://www.w3.org/2000/svg">
<g clip-path="url(#clip0_0_310)">
<rect x="329.883" y="120.858" width="276" height="237" rx="5.51637" fill="white"/>
<path d="M367.911 322.491C367.449 322.491 367.065 322.402 366.758 322.223C366.458 322.038 366.227 321.72 366.065 321.269C365.903 320.818 365.822 320.2 365.822 319.414C365.822 318.628 365.903 318.01 366.065 317.559C366.227 317.108 366.458 316.793 366.758 316.614C367.065 316.429 367.449 316.337 367.911 316.337C368.368 316.337 368.749 316.429 369.055 316.614C369.362 316.799 369.596 317.117 369.758 317.567C369.919 318.012 370 318.628 370 319.414C370 320.2 369.919 320.818 369.758 321.269C369.596 321.714 369.362 322.029 369.055 322.214C368.749 322.399 368.368 322.491 367.911 322.491ZM367.911 321.858C368.252 321.858 368.518 321.769 368.709 321.59C368.899 321.411 369.029 321.15 369.099 320.81C369.174 320.469 369.211 320.032 369.211 319.501V319.414C369.211 318.865 369.174 318.414 369.099 318.062C369.029 317.709 368.899 317.44 368.709 317.255C368.518 317.065 368.252 316.969 367.911 316.969C367.57 316.969 367.304 317.059 367.114 317.238C366.923 317.417 366.79 317.677 366.715 318.018C366.646 318.359 366.611 318.796 366.611 319.327V319.414C366.611 319.963 366.646 320.414 366.715 320.766C366.79 321.119 366.923 321.39 367.114 321.581C367.304 321.766 367.57 321.858 367.911 321.858Z" fill="#AEB0C0"/>
<path d="M357.165 281.636H358.7V277.405H357.157V276.954C357.434 276.926 357.766 276.853 358.153 276.738C358.546 276.616 358.884 276.478 359.168 276.322H359.462V281.636H360.884V282.268H357.165V281.636ZM363.577 282.372C363.115 282.372 362.73 282.283 362.424 282.104C362.124 281.919 361.892 281.601 361.731 281.15C361.569 280.699 361.488 280.081 361.488 279.295C361.488 278.509 361.569 277.891 361.731 277.44C361.892 276.989 362.124 276.674 362.424 276.495C362.73 276.31 363.115 276.218 363.577 276.218C364.034 276.218 364.415 276.31 364.721 276.495C365.028 276.68 365.262 276.998 365.423 277.449C365.585 277.894 365.666 278.509 365.666 279.295C365.666 280.081 365.585 280.699 365.423 281.15C365.262 281.595 365.028 281.91 364.721 282.095C364.415 282.28 364.034 282.372 363.577 282.372ZM363.577 281.74C363.918 281.74 364.184 281.65 364.375 281.471C364.565 281.292 364.695 281.032 364.765 280.691C364.84 280.35 364.877 279.913 364.877 279.382V279.295C364.877 278.746 364.84 278.295 364.765 277.943C364.695 277.59 364.565 277.321 364.375 277.137C364.184 276.946 363.918 276.85 363.577 276.85C363.236 276.85 362.97 276.94 362.78 277.119C362.589 277.298 362.456 277.558 362.381 277.899C362.311 278.24 362.277 278.677 362.277 279.208V279.295C362.277 279.844 362.311 280.295 362.381 280.647C362.456 281 362.589 281.271 362.78 281.462C362.97 281.647 363.236 281.74 363.577 281.74ZM366.565 276.001H367.328V279.945L369.261 277.709H370.206L368.637 279.503L370.292 282.268H369.408L368.16 280.049L367.328 280.838V282.268H366.565V276.001Z" fill="#AEB0C0"/>
<path d="M356.689 241.898C356.689 241.586 356.77 241.3 356.932 241.04C357.094 240.774 357.287 240.543 357.513 240.346C357.744 240.144 358.05 239.904 358.432 239.627C358.738 239.401 358.986 239.211 359.177 239.055C359.368 238.893 359.527 238.728 359.654 238.561C359.85 238.301 359.949 238.035 359.949 237.763C359.949 237.491 359.862 237.257 359.689 237.061C359.521 236.859 359.226 236.758 358.804 236.758C358.371 236.758 358.053 236.864 357.851 237.078C357.649 237.286 357.547 237.558 357.547 237.893V238.249H356.785C356.767 238.15 356.759 238.035 356.759 237.902C356.759 237.301 356.955 236.85 357.348 236.55C357.741 236.249 358.241 236.099 358.848 236.099C359.414 236.099 359.871 236.243 360.217 236.532C360.564 236.815 360.737 237.249 360.737 237.832C360.737 238.145 360.651 238.436 360.477 238.708C360.304 238.98 360.093 239.225 359.845 239.445C359.602 239.659 359.284 239.907 358.891 240.19C358.602 240.398 358.374 240.572 358.206 240.71C358.044 240.843 357.903 240.979 357.781 241.118C357.701 241.205 357.634 241.306 357.582 241.421H360.772V242.149H356.689V241.898ZM363.578 242.253C363.116 242.253 362.731 242.164 362.425 241.985C362.124 241.8 361.893 241.482 361.731 241.031C361.57 240.58 361.489 239.962 361.489 239.176C361.489 238.39 361.57 237.772 361.731 237.321C361.893 236.87 362.124 236.555 362.425 236.376C362.731 236.191 363.116 236.099 363.578 236.099C364.034 236.099 364.416 236.191 364.722 236.376C365.028 236.561 365.262 236.879 365.424 237.33C365.586 237.775 365.667 238.39 365.667 239.176C365.667 239.962 365.586 240.58 365.424 241.031C365.262 241.476 365.028 241.791 364.722 241.976C364.416 242.161 364.034 242.253 363.578 242.253ZM363.578 241.621C363.919 241.621 364.185 241.531 364.375 241.352C364.566 241.173 364.696 240.913 364.765 240.572C364.841 240.231 364.878 239.794 364.878 239.263V239.176C364.878 238.627 364.841 238.176 364.765 237.824C364.696 237.471 364.566 237.203 364.375 237.018C364.185 236.827 363.919 236.732 363.578 236.732C363.237 236.732 362.971 236.821 362.78 237C362.59 237.179 362.457 237.439 362.382 237.78C362.312 238.121 362.278 238.558 362.278 239.089V239.176C362.278 239.725 362.312 240.176 362.382 240.528C362.457 240.881 362.59 241.153 362.78 241.343C362.971 241.528 363.237 241.621 363.578 241.621ZM366.566 235.882H367.328V239.826L369.262 237.59H370.206L368.637 239.384L370.293 242.149H369.409L368.161 239.93L367.328 240.719V242.149H366.566V235.882Z" fill="#AEB0C0"/>
<path d="M358.786 202.135C358.104 202.135 357.578 201.976 357.209 201.658C356.839 201.334 356.654 200.898 356.654 200.349V200.279H357.425V200.375C357.425 200.739 357.538 201.019 357.763 201.216C357.989 201.406 358.307 201.502 358.717 201.502C359.139 201.502 359.468 201.409 359.705 201.224C359.948 201.039 360.069 200.759 360.069 200.383C360.069 199.996 359.939 199.725 359.679 199.569C359.425 199.407 359.093 199.326 358.682 199.326H358.058V198.693H358.708C359.055 198.693 359.347 198.604 359.584 198.424C359.821 198.245 359.939 197.988 359.939 197.653C359.939 197.306 359.826 197.046 359.601 196.873C359.381 196.699 359.101 196.613 358.76 196.613C358.396 196.613 358.104 196.705 357.885 196.89C357.665 197.069 357.555 197.335 357.555 197.688V197.766H356.784V197.61C356.784 197.286 356.868 197.003 357.035 196.76C357.203 196.512 357.434 196.321 357.729 196.188C358.029 196.049 358.37 195.98 358.752 195.98C359.353 195.98 359.832 196.121 360.191 196.405C360.549 196.688 360.728 197.089 360.728 197.61C360.728 197.939 360.641 198.211 360.468 198.424C360.295 198.632 360.052 198.806 359.74 198.945V198.979C360.081 199.077 360.352 199.251 360.555 199.499C360.757 199.748 360.858 200.06 360.858 200.435C360.858 200.782 360.768 201.086 360.589 201.346C360.416 201.6 360.173 201.796 359.861 201.935C359.549 202.068 359.191 202.135 358.786 202.135ZM363.577 202.135C363.115 202.135 362.73 202.045 362.424 201.866C362.124 201.681 361.892 201.363 361.731 200.912C361.569 200.462 361.488 199.843 361.488 199.057C361.488 198.271 361.569 197.653 361.731 197.202C361.892 196.751 362.124 196.436 362.424 196.257C362.73 196.072 363.115 195.98 363.577 195.98C364.034 195.98 364.415 196.072 364.721 196.257C365.028 196.442 365.262 196.76 365.423 197.211C365.585 197.656 365.666 198.271 365.666 199.057C365.666 199.843 365.585 200.462 365.423 200.912C365.262 201.357 365.028 201.672 364.721 201.857C364.415 202.042 364.034 202.135 363.577 202.135ZM363.577 201.502C363.918 201.502 364.184 201.412 364.375 201.233C364.565 201.054 364.695 200.794 364.765 200.453C364.84 200.112 364.877 199.676 364.877 199.144V199.057C364.877 198.508 364.84 198.057 364.765 197.705C364.695 197.352 364.565 197.084 364.375 196.899C364.184 196.708 363.918 196.613 363.577 196.613C363.236 196.613 362.97 196.702 362.78 196.881C362.589 197.061 362.456 197.321 362.381 197.662C362.311 198.003 362.277 198.439 362.277 198.971V199.057C362.277 199.606 362.311 200.057 362.381 200.409C362.456 200.762 362.589 201.034 362.78 201.224C362.97 201.409 363.236 201.502 363.577 201.502ZM366.565 195.763H367.328V199.707L369.261 197.471H370.206L368.637 199.265L370.292 202.031H369.408L368.16 199.811L367.328 200.6V202.031H366.565V195.763Z" fill="#AEB0C0"/>
<path d="M359.332 161.163H356.567V160.521C356.943 159.88 357.263 159.239 357.529 158.597C357.795 157.956 358.006 157.282 358.162 156.577H358.986C358.876 157.068 358.714 157.589 358.5 158.138C358.286 158.681 358.067 159.172 357.841 159.611C357.622 160.05 357.446 160.357 357.313 160.53H359.332V158.58C359.454 158.268 359.572 157.895 359.688 157.461H360.095V160.53H360.884V161.163H360.095V162.628H359.332V161.163ZM363.577 162.732C363.115 162.732 362.73 162.642 362.424 162.463C362.124 162.278 361.892 161.96 361.731 161.51C361.569 161.059 361.488 160.441 361.488 159.655C361.488 158.869 361.569 158.25 361.731 157.8C361.892 157.349 362.124 157.034 362.424 156.855C362.73 156.67 363.115 156.577 363.577 156.577C364.034 156.577 364.415 156.67 364.721 156.855C365.028 157.04 365.262 157.357 365.423 157.808C365.585 158.253 365.666 158.869 365.666 159.655C365.666 160.441 365.585 161.059 365.423 161.51C365.262 161.955 365.028 162.27 364.721 162.455C364.415 162.639 364.034 162.732 363.577 162.732ZM363.577 162.099C363.918 162.099 364.184 162.01 364.375 161.83C364.565 161.651 364.695 161.391 364.765 161.05C364.84 160.709 364.877 160.273 364.877 159.741V159.655C364.877 159.106 364.84 158.655 364.765 158.302C364.695 157.95 364.565 157.681 364.375 157.496C364.184 157.305 363.918 157.21 363.577 157.21C363.236 157.21 362.97 157.3 362.78 157.479C362.589 157.658 362.456 157.918 362.381 158.259C362.311 158.6 362.277 159.036 362.277 159.568V159.655C362.277 160.204 362.311 160.654 362.381 161.007C362.456 161.359 362.589 161.631 362.78 161.822C362.97 162.007 363.236 162.099 363.577 162.099ZM366.565 156.361H367.328V160.305L369.261 158.068H370.206L368.637 159.863L370.292 162.628H369.408L368.16 160.409L367.328 161.198V162.628H366.565V156.361Z" fill="#AEB0C0"/>
<path d="M378.883 321.486H567.795" stroke="#E7EEEE" stroke-width="0.788052"/>
<path d="M378.883 281.296H567.795" stroke="#E7EEEE" stroke-width="0.788052"/>
<path d="M378.883 241.105H567.795" stroke="#E7EEEE" stroke-width="0.788052"/>
<path d="M378.883 200.914H567.795" stroke="#E7EEEE" stroke-width="0.788052"/>
<path d="M378.883 158.359H567.795" stroke="#E7EEEE" stroke-width="0.788052"/>
<path d="M442.715 267.898H379.801V321.191H442.715H505.629H568.543V200.619C568.543 200.619 551.079 228.54 511.416 228.54C471.752 228.54 472.015 267.898 442.715 267.898Z" fill="url(#paint0_linear_0_310)"/>
<path d="M379.801 268.139C379.801 268.139 413.415 268.139 442.715 268.139C472.015 268.139 471.752 228.64 511.416 228.64C545.325 228.64 556.56 213.882 568.543 200.619" stroke="#1AC3DA" stroke-width="1.18208"/>
<g filter="url(#filter0_d_0_310)">
<ellipse cx="567.828" cy="200.964" rx="9.52719" ry="9.54529" fill="white"/>
<path d="M576.961 200.963C576.961 206.018 572.871 210.115 567.828 210.115C562.785 210.115 558.695 206.018 558.695 200.963C558.695 195.909 562.785 191.812 567.828 191.812C572.871 191.812 576.961 195.909 576.961 200.963Z" stroke="#B0E3EB" stroke-width="0.788052"/>
</g>
<ellipse cx="567.826" cy="200.963" rx="3.51002" ry="3.51669" fill="#1AC3DA"/>
<line x1="568.152" y1="210.864" x2="568.152" y2="321.979" stroke="#D4C2EB" stroke-width="0.788052" stroke-dasharray="3.94 3.94"/>
<circle cx="568.337" cy="321.585" r="1.97013" fill="#1AC3DA"/>
</g>
<g filter="url(#filter1_d_0_310)">
<g filter="url(#filter2_bd_0_310)">
<path d="M498.883 304.324V355.255C498.883 409.525 562.236 433.18 564.956 434.142C566.201 434.591 567.564 434.591 568.809 434.142C571.529 433.18 634.883 409.525 634.883 355.255V304.324C634.882 303.161 634.523 302.026 633.854 301.074C633.185 300.122 632.238 299.4 631.143 299.004L568.809 276.368C567.564 275.919 566.201 275.919 564.956 276.368L502.623 299.004C501.528 299.4 500.581 300.122 499.912 301.074C499.243 302.026 498.883 303.161 498.883 304.324Z" fill="url(#paint1_linear_0_310)"/>
</g>
<g clip-path="url(#clip1_0_310)">
<path d="M566.883 324.026C558.224 324.026 551.258 331.202 551.258 340.087V346.515V346.534C548.389 346.824 546.883 349.252 546.883 352.2V373.341C546.883 376.486 549.422 379.026 552.566 379.026H581.199C584.344 379.026 586.883 376.486 586.883 373.341V352.2C586.883 349.252 585.377 346.805 582.508 346.515V340.087C582.508 331.202 575.541 324.026 566.883 324.026V324.026ZM566.883 330.259C572.424 330.259 576.883 334.656 576.883 340.126V346.515H556.883V340.126C556.883 334.656 561.342 330.259 566.883 330.259ZM566.883 354.643C569.299 354.643 571.258 356.602 571.258 359.019C571.258 360.556 570.463 361.912 569.266 362.692C569.331 362.916 569.383 363.15 569.383 363.396V368.398C569.383 369.783 568.268 370.898 566.883 370.898C565.498 370.898 564.383 369.783 564.383 368.398V363.396C564.383 363.15 564.435 362.916 564.5 362.692C563.303 361.912 562.508 360.556 562.508 359.019C562.508 356.602 564.467 354.643 566.883 354.643Z" fill="white"/>
</g>
</g>
<g filter="url(#filter3_d_0_310)">
<path d="M158.883 52.3267C158.883 45.6992 164.255 40.3267 170.883 40.3267H421.883C428.51 40.3267 433.883 45.6992 433.883 52.3267V266.961C433.883 272.466 430.191 277.25 424.847 278.569C396.525 285.561 310.528 306.5 296.383 306.5C282.237 306.5 196.241 285.561 167.919 278.569C162.574 277.25 158.883 272.466 158.883 266.961V52.3267Z" fill="white"/>
<circle cx="294.025" cy="171.241" r="17.6786" stroke="#E3E1E2" stroke-width="0.785714"/>
<path d="M272.769 240.753C271.776 240.753 270.871 240.609 270.054 240.32C269.236 240.031 268.583 239.591 268.092 239C267.602 238.396 267.357 237.655 267.357 236.775L267.376 236.379H269.808C269.796 236.454 269.79 236.567 269.79 236.718C269.79 237.347 270.06 237.837 270.6 238.189C271.141 238.541 271.883 238.717 272.826 238.717C273.831 238.717 274.579 238.572 275.07 238.283C275.56 237.994 275.805 237.592 275.805 237.076C275.805 236.674 275.66 236.341 275.371 236.077C275.082 235.813 274.724 235.605 274.296 235.455C273.869 235.291 273.266 235.103 272.486 234.889C271.455 234.612 270.619 234.348 269.978 234.097C269.35 233.833 268.809 233.449 268.356 232.947C267.904 232.431 267.678 231.759 267.678 230.929C267.678 229.772 268.155 228.892 269.111 228.289C270.066 227.673 271.317 227.365 272.863 227.365C274.347 227.365 275.554 227.679 276.484 228.308C277.427 228.924 277.898 229.86 277.898 231.117V231.344H275.522V231.136C275.522 230.596 275.277 230.175 274.787 229.873C274.309 229.559 273.662 229.401 272.844 229.401C271.99 229.401 271.317 229.527 270.827 229.779C270.349 230.03 270.11 230.382 270.11 230.835C270.11 231.174 270.248 231.463 270.525 231.702C270.802 231.928 271.147 232.117 271.562 232.268C271.99 232.406 272.562 232.569 273.278 232.758C274.322 233.035 275.17 233.305 275.824 233.569C276.49 233.833 277.056 234.223 277.521 234.738C277.999 235.253 278.238 235.92 278.238 236.737C278.238 238.12 277.747 239.138 276.767 239.792C275.786 240.433 274.454 240.753 272.769 240.753ZM280.425 230.608H282.292L282.48 231.928H282.593C282.92 231.425 283.348 231.042 283.876 230.778C284.404 230.514 284.988 230.382 285.629 230.382C286.887 230.382 287.861 230.809 288.552 231.664C289.244 232.519 289.589 233.827 289.589 235.587C289.589 237.296 289.244 238.585 288.552 239.452C287.861 240.32 286.937 240.753 285.78 240.753C284.397 240.753 283.404 240.295 282.801 239.377H282.688V243.789H280.425V230.608ZM284.951 238.811C285.78 238.811 286.371 238.566 286.723 238.076C287.075 237.573 287.251 236.781 287.251 235.7V235.455C287.251 234.361 287.075 233.569 286.723 233.079C286.371 232.576 285.78 232.324 284.951 232.324C284.171 232.324 283.599 232.588 283.235 233.116C282.87 233.644 282.688 234.424 282.688 235.455V235.681C282.688 236.712 282.87 237.491 283.235 238.019C283.599 238.547 284.171 238.811 284.951 238.811ZM295.714 240.753C294.105 240.753 292.911 240.332 292.131 239.49C291.352 238.648 290.962 237.34 290.962 235.568C290.962 233.795 291.352 232.488 292.131 231.645C292.923 230.803 294.118 230.382 295.714 230.382C297.173 230.382 298.26 230.791 298.977 231.608C299.706 232.425 300.07 233.701 300.07 235.436V236.115H293.263C293.301 237.095 293.508 237.818 293.885 238.283C294.275 238.736 294.891 238.962 295.733 238.962C296.362 238.962 296.871 238.805 297.261 238.491C297.65 238.164 297.845 237.686 297.845 237.057H300.07C300.07 238.277 299.668 239.201 298.863 239.829C298.059 240.445 297.009 240.753 295.714 240.753ZM297.713 234.512C297.713 232.953 297.047 232.173 295.714 232.173C294.96 232.173 294.388 232.368 293.998 232.758C293.621 233.135 293.389 233.72 293.301 234.512H297.713ZM306.192 240.753C304.583 240.753 303.389 240.332 302.61 239.49C301.83 238.648 301.44 237.34 301.44 235.568C301.44 233.795 301.83 232.488 302.61 231.645C303.402 230.803 304.596 230.382 306.192 230.382C307.651 230.382 308.738 230.791 309.455 231.608C310.184 232.425 310.548 233.701 310.548 235.436V236.115H303.741C303.779 237.095 303.986 237.818 304.363 238.283C304.753 238.736 305.369 238.962 306.211 238.962C306.84 238.962 307.349 238.805 307.739 238.491C308.128 238.164 308.323 237.686 308.323 237.057H310.548C310.548 238.277 310.146 239.201 309.342 239.829C308.537 240.445 307.487 240.753 306.192 240.753ZM308.191 234.512C308.191 232.953 307.525 232.173 306.192 232.173C305.438 232.173 304.866 232.368 304.476 232.758C304.099 233.135 303.867 233.72 303.779 234.512H308.191ZM315.86 240.753C314.603 240.753 313.628 240.326 312.937 239.471C312.246 238.616 311.9 237.309 311.9 235.549C311.9 233.839 312.246 232.551 312.937 231.683C313.628 230.816 314.552 230.382 315.709 230.382C317.092 230.382 318.085 230.841 318.688 231.759H318.802V226.893H321.064V240.527H319.198L319.009 239.207H318.896C318.569 239.71 318.142 240.093 317.614 240.357C317.086 240.621 316.501 240.753 315.86 240.753ZM316.539 238.811C317.318 238.811 317.89 238.553 318.255 238.038C318.619 237.51 318.802 236.731 318.802 235.7V235.473C318.802 233.374 318.047 232.324 316.539 232.324C315.709 232.324 315.118 232.576 314.766 233.079C314.414 233.569 314.238 234.361 314.238 235.455V235.7C314.238 236.781 314.414 237.573 314.766 238.076C315.118 238.566 315.709 238.811 316.539 238.811Z" fill="black"/>
<path d="M273.673 121.916H274.974L276.36 125.867C276.417 126.018 276.502 126.266 276.615 126.612C276.697 126.869 276.744 127.011 276.756 127.036H276.803C276.967 126.495 277.093 126.103 277.181 125.857L278.557 121.916H279.802L277.445 128.384H276.04L273.673 121.916ZM282.446 128.497C281.641 128.497 281.044 128.287 280.654 127.866C280.264 127.445 280.07 126.791 280.07 125.905C280.07 125.018 280.264 124.365 280.654 123.943C281.05 123.522 281.647 123.312 282.446 123.312C283.175 123.312 283.718 123.516 284.077 123.925C284.441 124.333 284.624 124.971 284.624 125.839V126.178H281.22C281.239 126.668 281.342 127.03 281.531 127.262C281.726 127.489 282.034 127.602 282.455 127.602C282.769 127.602 283.024 127.523 283.219 127.366C283.414 127.203 283.511 126.964 283.511 126.649H284.624C284.624 127.259 284.422 127.721 284.02 128.035C283.618 128.343 283.093 128.497 282.446 128.497ZM283.445 125.377C283.445 124.597 283.112 124.207 282.446 124.207C282.068 124.207 281.782 124.305 281.588 124.5C281.399 124.688 281.283 124.981 281.239 125.377H283.445ZM285.62 123.425H286.553L286.657 124.207H286.723C286.949 123.61 287.32 123.312 287.836 123.312C288.012 123.312 288.169 123.34 288.307 123.397V124.462H287.949C287.15 124.462 286.751 124.908 286.751 125.801V128.384H285.62V123.425ZM289.76 130.1C289.496 130.1 289.298 130.081 289.166 130.044C289.034 130.012 288.965 129.997 288.959 129.997V129.214H289.468C289.713 129.214 289.917 129.148 290.081 129.016C290.25 128.89 290.382 128.68 290.477 128.384L288.544 123.425H289.732L290.665 125.81C290.772 126.093 290.91 126.552 291.08 127.187H291.127C291.284 126.583 291.413 126.125 291.514 125.81L292.268 123.425H293.409L291.759 128.13C291.533 128.765 291.272 129.252 290.976 129.591C290.681 129.931 290.276 130.1 289.76 130.1ZM296.807 121.916H301.456V122.944H298.014V124.698H301.116V125.725H298.014V128.384H296.807V121.916ZM303.391 128.497C302.989 128.497 302.624 128.4 302.297 128.205C301.977 128.004 301.817 127.636 301.817 127.102C301.817 126.467 302.087 126.021 302.627 125.763C303.168 125.505 303.935 125.377 304.928 125.377V124.962C304.928 124.723 304.865 124.537 304.739 124.405C304.62 124.273 304.4 124.207 304.079 124.207C303.746 124.207 303.511 124.261 303.372 124.368C303.234 124.475 303.165 124.607 303.165 124.764V124.896H302.071C302.065 124.858 302.062 124.789 302.062 124.688C302.062 124.261 302.244 123.925 302.609 123.679C302.979 123.434 303.47 123.312 304.079 123.312C304.739 123.312 305.233 123.447 305.56 123.717C305.893 123.987 306.059 124.374 306.059 124.877V127.243C306.059 127.357 306.091 127.441 306.154 127.498C306.217 127.548 306.295 127.573 306.389 127.573H306.691V128.347C306.49 128.441 306.254 128.488 305.984 128.488C305.739 128.488 305.535 128.428 305.371 128.309C305.208 128.189 305.098 128.026 305.041 127.819H304.975C304.604 128.271 304.076 128.497 303.391 128.497ZM303.731 127.592C304.101 127.592 304.394 127.485 304.607 127.272C304.821 127.058 304.928 126.769 304.928 126.404V126.178C304.318 126.178 303.841 126.238 303.495 126.357C303.149 126.47 302.976 126.681 302.976 126.989C302.976 127.391 303.228 127.592 303.731 127.592ZM309.3 128.497C308.615 128.497 308.083 128.356 307.706 128.073C307.335 127.79 307.15 127.423 307.15 126.97C307.15 126.913 307.15 126.876 307.15 126.857C307.156 126.838 307.159 126.825 307.159 126.819H308.263V126.895C308.269 127.14 308.373 127.322 308.574 127.441C308.781 127.555 309.039 127.611 309.347 127.611C309.623 127.611 309.859 127.567 310.054 127.479C310.249 127.385 310.346 127.247 310.346 127.064C310.346 126.92 310.293 126.803 310.186 126.715C310.079 126.621 309.947 126.549 309.79 126.499C309.633 126.442 309.41 126.379 309.121 126.31C308.731 126.216 308.41 126.121 308.159 126.027C307.914 125.933 307.703 125.785 307.527 125.584C307.351 125.383 307.263 125.119 307.263 124.792C307.263 124.321 307.458 123.956 307.848 123.698C308.237 123.441 308.743 123.312 309.366 123.312C309.749 123.312 310.092 123.368 310.393 123.481C310.695 123.595 310.928 123.755 311.091 123.962C311.261 124.163 311.346 124.396 311.346 124.66L311.336 124.867H310.233V124.83C310.233 124.635 310.151 124.484 309.988 124.377C309.831 124.264 309.601 124.207 309.3 124.207C309.004 124.207 308.781 124.255 308.63 124.349C308.479 124.437 308.404 124.553 308.404 124.698C308.404 124.874 308.495 125.006 308.677 125.094C308.866 125.175 309.152 125.257 309.535 125.339C309.95 125.433 310.283 125.531 310.535 125.631C310.793 125.725 311.016 125.876 311.204 126.084C311.393 126.291 311.487 126.571 311.487 126.923C311.487 127.47 311.289 127.869 310.893 128.12C310.503 128.372 309.972 128.497 309.3 128.497ZM313.742 128.497C313.32 128.497 313.016 128.381 312.827 128.149C312.645 127.91 312.554 127.614 312.554 127.262V124.349H311.95V123.425H312.572L312.78 122.039H313.685V123.425H314.534V124.349H313.685V127.149C313.685 127.432 313.82 127.573 314.09 127.573H314.534V128.347C314.433 128.384 314.307 128.419 314.156 128.45C314.006 128.482 313.867 128.497 313.742 128.497Z" fill="#FB4247"/>
<ellipse cx="292.831" cy="170.517" rx="3.49208" ry="3.49209" transform="rotate(119.819 292.831 170.517)" fill="black"/>
<path d="M345.475 201.253L294.698 167.539L291.217 173.613L345.475 201.253Z" fill="black"/>
<path d="M206.425 225.761C198.545 211.411 194.031 194.909 194.031 177.402C194.031 121.941 238.951 76.9556 294.33 76.9556C349.709 76.9556 394.629 121.941 394.629 177.402C394.629 194.765 390.259 211.052 382.522 225.258" stroke="#E3E1E2" stroke-width="6.28572" stroke-linecap="round"/>
<path d="M206.425 225.761C198.545 211.411 194.031 194.909 194.031 177.402C194.031 121.941 238.951 76.9556 294.33 76.9556C349.709 76.9556 394.629 121.941 394.629 177.402C394.629 194.765 390.259 211.052 382.522 225.258" stroke="url(#paint2_angular_0_310)" stroke-width="9.42857" stroke-linecap="round"/>
<path d="M295.047 99.3828V94.9414" stroke="#E3E1E2" stroke-width="1.17857" stroke-linecap="round"/>
<path d="M279.058 100.863L278.074 96.4219" stroke="#E3E1E2" stroke-width="1.17857" stroke-linecap="round"/>
<path d="M264.296 105.798L262.82 101.85" stroke="#E3E1E2" stroke-width="1.17857" stroke-linecap="round"/>
<path d="M251.503 113.694L248.551 109.746" stroke="#E3E1E2" stroke-width="1.17857" stroke-linecap="round"/>
<path d="M239.694 124.057L236.25 120.603" stroke="#E3E1E2" stroke-width="1.17857" stroke-linecap="round"/>
<path d="M229.854 136.888L225.918 133.927" stroke="#E3E1E2" stroke-width="1.17857" stroke-linecap="round"/>
<path d="M222.963 150.212L218.535 148.731" stroke="#E3E1E2" stroke-width="1.17857" stroke-linecap="round"/>
<path d="M218.538 165.016L214.109 164.523" stroke="#E3E1E2" stroke-width="1.17857" stroke-linecap="round"/>
<path d="M218.045 180.906L213.617 181.203" stroke="#E3E1E2" stroke-width="1.17857" stroke-linecap="round"/>
<path d="M220.999 196.599L216.57 197.586" stroke="#E3E1E2" stroke-width="1.17857" stroke-linecap="round"/>
<path d="M226.901 211.404L222.965 213.871" stroke="#E3E1E2" stroke-width="1.17857" stroke-linecap="round"/>
<path d="M310.547 100.863L311.531 96.4219" stroke="#E3E1E2" stroke-width="1.17857" stroke-linecap="round"/>
<path d="M325.309 105.798L326.785 101.85" stroke="#E3E1E2" stroke-width="1.17857" stroke-linecap="round"/>
<path d="M338.102 113.694L341.054 109.746" stroke="#E3E1E2" stroke-width="1.17857" stroke-linecap="round"/>
<path d="M349.91 124.057L353.354 120.603" stroke="#E3E1E2" stroke-width="1.17857" stroke-linecap="round"/>
<path d="M359.75 136.888L363.686 133.927" stroke="#E3E1E2" stroke-width="1.17857" stroke-linecap="round"/>
<path d="M366.641 150.212L371.069 148.731" stroke="#E3E1E2" stroke-width="1.17857" stroke-linecap="round"/>
<path d="M371.066 165.016L375.495 164.523" stroke="#E3E1E2" stroke-width="1.17857" stroke-linecap="round"/>
<path d="M371.559 180.906L375.987 181.203" stroke="#E3E1E2" stroke-width="1.17857" stroke-linecap="round"/>
<path d="M368.609 196.599L373.038 197.586" stroke="#E3E1E2" stroke-width="1.17857" stroke-linecap="round"/>
<path d="M362.703 211.404L366.639 213.871" stroke="#E3E1E2" stroke-width="1.17857" stroke-linecap="round"/>
<g filter="url(#filter4_d_0_310)">
<path d="M384.013 226.81C387.357 226.81 390.069 224.091 390.069 220.737C390.069 217.382 387.357 214.663 384.013 214.663C380.668 214.663 377.957 217.382 377.957 220.737C377.957 224.091 380.668 226.81 384.013 226.81Z" fill="black"/>
</g>
<path d="M383.127 231.665C388.143 231.665 392.21 227.586 392.21 222.555C392.21 217.523 388.143 213.444 383.127 213.444C378.11 213.444 374.043 217.523 374.043 222.555C374.043 227.586 378.11 231.665 383.127 231.665Z" fill="#FB4247" stroke="white" stroke-width="6.28572"/>
</g>
<g clip-path="url(#clip2_0_310)" filter="url(#filter5_d_0_310)">
<circle cx="124.883" cy="276.018" r="64" fill="white"/>
<path d="M125.808 280.372L110.633 324.447C115.119 325.766 119.87 326.558 124.884 326.558C130.691 326.558 136.365 325.502 141.643 323.655C141.511 323.391 141.379 323.259 141.247 322.995L125.808 280.372Z" fill="url(#paint3_linear_0_310)"/>
<path d="M74.4727 276.017C74.4727 295.943 86.085 313.23 102.844 321.411L78.8273 255.432C76.0562 261.766 74.4727 268.628 74.4727 276.017Z" fill="url(#paint4_linear_0_310)"/>
<path d="M158.933 273.51C158.933 267.308 156.69 262.954 154.842 259.655C152.335 255.564 149.828 252.001 149.828 247.778C149.828 243.16 153.391 238.805 158.273 238.805C158.537 238.805 158.669 238.805 158.933 238.805C149.96 230.624 137.952 225.609 124.888 225.609C107.205 225.609 91.7662 234.715 82.793 248.306C83.9806 248.306 85.0363 248.306 86.0919 248.306C91.3703 248.306 99.5517 247.646 99.5517 247.646C102.323 247.515 102.587 251.473 99.8156 251.737C99.8156 251.737 97.0445 252.001 94.0095 252.265L112.352 307.028L123.436 273.906L115.519 252.397C112.748 252.265 110.24 251.869 110.24 251.869C107.469 251.737 107.865 247.515 110.504 247.778C110.504 247.778 118.818 248.438 123.832 248.438C129.11 248.438 137.292 247.778 137.292 247.778C140.063 247.646 140.327 251.605 137.556 251.869C137.556 251.869 134.785 252.133 131.75 252.397L149.96 306.632L154.974 289.873C157.218 282.748 158.933 277.733 158.933 273.51Z" fill="url(#paint5_linear_0_310)"/>
<path d="M169.085 251.869C169.349 253.453 169.481 255.168 169.481 257.016C169.481 262.162 168.557 267.836 165.654 275.094L150.215 319.564C165.258 310.855 175.287 294.624 175.287 276.018C175.287 267.176 173.044 258.995 169.085 251.869Z" fill="url(#paint6_linear_0_310)"/>
<path d="M124.883 212.018C89.5179 212.018 60.8828 240.653 60.8828 276.018C60.8828 311.383 89.5179 340.018 124.883 340.018C160.248 340.018 188.883 311.383 188.883 276.018C188.883 240.653 160.248 212.018 124.883 212.018ZM124.883 332.1C94.0045 332.1 68.8003 306.896 68.8003 276.018C68.8003 245.139 94.0045 219.935 124.883 219.935C155.761 219.935 180.965 245.139 180.965 276.018C180.965 306.896 155.761 332.1 124.883 332.1Z" fill="url(#paint7_linear_0_310)"/>
</g>
<circle cx="321.89" cy="411.503" r="139.503" fill="url(#paint8_radial_0_310)" fill-opacity="0.16"/>
<circle cx="318.341" cy="412.171" r="66.9466" fill="url(#paint9_radial_0_310)" fill-opacity="0.48"/>
<rect x="222.641" y="373" width="198.884" height="72.0168" rx="36.0084" fill="#FB4247"/>
<path d="M261.974 398.275C260.824 398.275 259.891 397.342 259.891 396.192C259.891 395.042 260.824 394.108 261.974 394.108H286.582C287.732 394.108 288.666 395.042 288.666 396.192C288.666 397.342 287.732 398.275 286.582 398.275H261.974ZM285.158 415.188C285.993 414.402 287.309 414.441 288.095 415.276C288.88 416.111 288.841 417.427 288.006 418.213C286.082 420.019 283.907 421.458 281.562 422.435C279.269 423.39 276.816 423.908 274.278 423.908C271.74 423.908 269.288 423.39 266.994 422.435C264.65 421.458 262.475 420.019 260.55 418.213C259.715 417.427 259.676 416.111 260.462 415.276C261.247 414.441 262.563 414.402 263.398 415.188C264.958 416.653 266.71 417.814 268.589 418.597C270.371 419.338 272.285 419.742 274.278 419.742C276.271 419.742 278.186 419.338 279.968 418.597C281.846 417.814 283.598 416.653 285.158 415.188ZM285.703 404.565C286.74 404.08 287.977 404.529 288.462 405.566C288.948 406.603 288.498 407.84 287.462 408.325C285.57 409.213 283.452 409.917 281.186 410.387C278.997 410.844 276.669 411.091 274.278 411.091C271.888 411.091 269.56 410.844 267.37 410.387C265.104 409.917 262.985 409.211 261.095 408.325C260.058 407.84 259.609 406.603 260.094 405.566C260.58 404.529 261.817 404.08 262.854 404.565C264.448 405.314 266.258 405.912 268.216 406.319C270.1 406.711 272.141 406.924 274.278 406.924C276.416 406.924 278.457 406.711 280.34 406.319C282.299 405.912 284.11 405.312 285.703 404.565Z" fill="white"/>
<path d="M310.314 401.87H317.217C318.835 401.87 320.052 402.285 320.869 403.115C321.685 403.931 322.093 405.092 322.093 406.598C322.093 408.104 321.664 409.279 320.805 410.123C319.961 410.953 318.694 411.369 317.006 411.369H313.375V416.35H310.314V401.87ZM316.942 408.772C317.604 408.772 318.11 408.582 318.462 408.202C318.814 407.822 318.99 407.288 318.99 406.598C318.99 405.923 318.814 405.402 318.462 405.036C318.11 404.656 317.604 404.466 316.942 404.466H313.375V408.772H316.942ZM327.876 416.603C326.737 416.603 325.836 416.294 325.175 415.675C324.527 415.055 324.204 414.063 324.204 412.698V405.247H327.095V412.086C327.095 412.776 327.257 413.275 327.581 413.585C327.905 413.894 328.383 414.049 329.016 414.049C329.664 414.049 330.198 413.824 330.621 413.374C331.057 412.909 331.275 412.34 331.275 411.664V405.247H334.167V416.35H331.697L331.486 414.894H331.338C330.438 416.033 329.284 416.603 327.876 416.603ZM343.145 416.603C342.427 416.603 341.773 416.463 341.182 416.181C340.591 415.886 340.119 415.457 339.767 414.894H339.62L339.43 416.35H336.96V401.089H339.852V406.535H339.978C340.302 406.042 340.745 405.662 341.308 405.395C341.885 405.127 342.547 404.994 343.292 404.994C344.587 404.994 345.621 405.479 346.395 406.45C347.183 407.421 347.577 408.864 347.577 410.777C347.577 412.734 347.19 414.197 346.416 415.168C345.643 416.125 344.552 416.603 343.145 416.603ZM342.216 414.092C343.074 414.092 343.686 413.838 344.052 413.332C344.418 412.811 344.601 412.03 344.601 410.989V410.609C344.601 409.567 344.418 408.793 344.052 408.287C343.686 407.766 343.074 407.506 342.216 407.506C340.64 407.506 339.852 408.554 339.852 410.651V410.989C339.852 413.057 340.64 414.092 342.216 414.092ZM349.653 401.089H352.545V416.35H349.653V401.089ZM355.296 401.089H358.188V403.833H355.296V401.089ZM355.296 405.247H358.188V416.35H355.296V405.247ZM365.413 416.603C363.865 416.603 362.648 416.287 361.762 415.654C360.889 415.006 360.453 414.148 360.453 413.078L360.474 412.825H363.281V412.973C363.295 413.465 363.514 413.824 363.936 414.049C364.372 414.26 364.9 414.366 365.519 414.366C366.096 414.366 366.588 414.289 366.996 414.134C367.405 413.979 367.609 413.726 367.609 413.374C367.609 412.98 367.398 412.684 366.975 412.487C366.567 412.29 365.92 412.093 365.033 411.896C364.119 411.685 363.373 411.474 362.796 411.263C362.219 411.038 361.719 410.693 361.297 410.229C360.875 409.764 360.664 409.145 360.664 408.371C360.664 407.288 361.114 406.457 362.015 405.88C362.93 405.289 364.105 404.994 365.54 404.994C366.877 404.994 367.982 405.268 368.854 405.817C369.727 406.352 370.163 407.084 370.163 408.012L370.142 408.498H367.334V408.371C367.334 408.005 367.158 407.724 366.807 407.527C366.469 407.33 366.011 407.231 365.434 407.231C364.858 407.231 364.4 407.309 364.062 407.463C363.725 407.618 363.556 407.836 363.556 408.118C363.556 408.47 363.746 408.73 364.126 408.899C364.52 409.068 365.146 409.237 366.004 409.405C366.947 409.617 367.714 409.828 368.305 410.039C368.896 410.25 369.41 410.595 369.846 411.073C370.282 411.551 370.5 412.199 370.5 413.015C370.5 415.407 368.805 416.603 365.413 416.603ZM372.499 401.089H375.391V406.535H375.538C376.383 405.507 377.466 404.994 378.789 404.994C379.929 404.994 380.822 405.303 381.47 405.923C382.131 406.542 382.462 407.534 382.462 408.899V416.35H379.57V409.511C379.57 408.821 379.408 408.322 379.084 408.012C378.761 407.703 378.282 407.548 377.649 407.548C377.002 407.548 376.46 407.78 376.024 408.244C375.602 408.695 375.391 409.258 375.391 409.933V416.35H372.499V401.089Z" fill="white"/>
<defs>
<filter id="filter0_d_0_310" x="548.844" y="183.538" width="37.9679" height="38.0038" filterUnits="userSpaceOnUse" color-interpolation-filters="sRGB">
<feFlood flood-opacity="0" result="BackgroundImageFix"/>
<feColorMatrix in="SourceAlpha" type="matrix" values="0 0 0 0 0 0 0 0 0 0 0 0 0 0 0 0 0 0 127 0" result="hardAlpha"/>
<feOffset dy="1.5761"/>
<feGaussianBlur stdDeviation="4.72831"/>
<feColorMatrix type="matrix" values="0 0 0 0 0.256667 0 0 0 0 0.35 0 0 0 0 0.346175 0 0 0 0.02 0"/>
<feBlend mode="normal" in2="BackgroundImageFix" result="effect1_dropShadow_0_310"/>
<feBlend mode="normal" in="SourceGraphic" in2="effect1_dropShadow_0_310" result="shape"/>
</filter>
<filter id="filter1_d_0_310" x="434.883" y="272.026" width="264" height="286.453" filterUnits="userSpaceOnUse" color-interpolation-filters="sRGB">
<feFlood flood-opacity="0" result="BackgroundImageFix"/>
<feColorMatrix in="SourceAlpha" type="matrix" values="0 0 0 0 0 0 0 0 0 0 0 0 0 0 0 0 0 0 127 0" result="hardAlpha"/>
<feOffset dy="60"/>
<feGaussianBlur stdDeviation="32"/>
<feColorMatrix type="matrix" values="0 0 0 0 0.152941 0 0 0 0 0.188235 0 0 0 0 0.305882 0 0 0 0.4 0"/>
<feBlend mode="normal" in2="BackgroundImageFix" result="effect1_dropShadow_0_310"/>
<feBlend mode="normal" in="SourceGraphic" in2="effect1_dropShadow_0_310" result="shape"/>
</filter>
<filter id="filter2_bd_0_310" x="447.621" y="224.769" width="238.524" height="286.602" filterUnits="userSpaceOnUse" color-interpolation-filters="sRGB">
<feFlood flood-opacity="0" result="BackgroundImageFix"/>
<feGaussianBlur in="BackgroundImageFix" stdDeviation="25.6309"/>
<feComposite in2="SourceAlpha" operator="in" result="effect1_backgroundBlur_0_310"/>
<feColorMatrix in="SourceAlpha" type="matrix" values="0 0 0 0 0 0 0 0 0 0 0 0 0 0 0 0 0 0 127 0" result="hardAlpha"/>
<feOffset dy="25.6309"/>
<feGaussianBlur stdDeviation="25.6309"/>
<feColorMatrix type="matrix" values="0 0 0 0 0 0 0 0 0 0 0 0 0 0 0 0 0 0 0.12 0"/>
<feBlend mode="normal" in2="effect1_backgroundBlur_0_310" result="effect2_dropShadow_0_310"/>
<feBlend mode="normal" in="SourceGraphic" in2="effect2_dropShadow_0_310" result="shape"/>
</filter>
<filter id="filter3_d_0_310" x="38.8828" y="0.32666" width="515" height="506.173" filterUnits="userSpaceOnUse" color-interpolation-filters="sRGB">
<feFlood flood-opacity="0" result="BackgroundImageFix"/>
<feColorMatrix in="SourceAlpha" type="matrix" values="0 0 0 0 0 0 0 0 0 0 0 0 0 0 0 0 0 0 127 0" result="hardAlpha"/>
<feOffset dy="80"/>
<feGaussianBlur stdDeviation="60"/>
<feColorMatrix type="matrix" values="0 0 0 0 0.152941 0 0 0 0 0.188235 0 0 0 0 0.305882 0 0 0 0.3 0"/>
<feBlend mode="normal" in2="BackgroundImageFix" result="effect1_dropShadow_0_310"/>
<feBlend mode="normal" in="SourceGraphic" in2="effect1_dropShadow_0_310" result="shape"/>
</filter>
<filter id="filter4_d_0_310" x="362.243" y="205.235" width="43.5419" height="43.5758" filterUnits="userSpaceOnUse" color-interpolation-filters="sRGB">
<feFlood flood-opacity="0" result="BackgroundImageFix"/>
<feColorMatrix in="SourceAlpha" type="matrix" values="0 0 0 0 0 0 0 0 0 0 0 0 0 0 0 0 0 0 127 0" result="hardAlpha"/>
<feOffset dy="6.28572"/>
<feGaussianBlur stdDeviation="7.85714"/>
<feColorMatrix type="matrix" values="0 0 0 0 0 0 0 0 0 0 0 0 0 0 0 0 0 0 0.4 0"/>
<feBlend mode="normal" in2="BackgroundImageFix" result="effect1_dropShadow_0_310"/>
<feBlend mode="normal" in="SourceGraphic" in2="effect1_dropShadow_0_310" result="shape"/>
</filter>
<filter id="filter5_d_0_310" x="0.882812" y="202.018" width="248" height="248" filterUnits="userSpaceOnUse" color-interpolation-filters="sRGB">
<feFlood flood-opacity="0" result="BackgroundImageFix"/>
<feColorMatrix in="SourceAlpha" type="matrix" values="0 0 0 0 0 0 0 0 0 0 0 0 0 0 0 0 0 0 127 0" result="hardAlpha"/>
<feOffset dy="50"/>
<feGaussianBlur stdDeviation="30"/>
<feColorMatrix type="matrix" values="0 0 0 0 0.152941 0 0 0 0 0.188235 0 0 0 0 0.305882 0 0 0 0.3 0"/>
<feBlend mode="normal" in2="BackgroundImageFix" result="effect1_dropShadow_0_310"/>
<feBlend mode="normal" in="SourceGraphic" in2="effect1_dropShadow_0_310" result="shape"/>
</filter>
<linearGradient id="paint0_linear_0_310" x1="474.172" y1="200.619" x2="474.172" y2="321.191" gradientUnits="userSpaceOnUse">
<stop stop-color="#1AC3DA" stop-opacity="0.29"/>
<stop offset="1" stop-color="#1AC3DA" stop-opacity="0"/>
</linearGradient>
<linearGradient id="paint1_linear_0_310" x1="497.929" y1="356.882" x2="635.446" y2="356.439" gradientUnits="userSpaceOnUse">
<stop stop-color="#FB6165"/>
<stop offset="1" stop-color="#E72E33"/>
</linearGradient>
<radialGradient id="paint2_angular_0_310" cx="0" cy="0" r="1" gradientUnits="userSpaceOnUse" gradientTransform="translate(293.952 177.269) rotate(90) scale(73.3449 73.384)">
<stop offset="0.176958" stop-color="#1AC3DA"/>
<stop offset="0.822215" stop-color="#FB4247"/>
</radialGradient>
<linearGradient id="paint3_linear_0_310" x1="171.283" y1="318.418" x2="-169.064" y2="234.764" gradientUnits="userSpaceOnUse">
<stop stop-color="#1CC5DC"/>
<stop offset="1" stop-color="white" stop-opacity="0.8"/>
</linearGradient>
<linearGradient id="paint4_linear_0_310" x1="177.681" y1="317.618" x2="-111.687" y2="362.343" gradientUnits="userSpaceOnUse">
<stop stop-color="#1CC5DC"/>
<stop offset="1" stop-color="white" stop-opacity="0.8"/>
</linearGradient>
<linearGradient id="paint5_linear_0_310" x1="172.884" y1="314.418" x2="-127.029" y2="123.133" gradientUnits="userSpaceOnUse">
<stop stop-color="#1CC5DC"/>
<stop offset="1" stop-color="white" stop-opacity="0.8"/>
</linearGradient>
<linearGradient id="paint6_linear_0_310" x1="175.281" y1="319.218" x2="-79.0707" y2="385.833" gradientUnits="userSpaceOnUse">
<stop stop-color="#54D3E5"/>
<stop offset="1" stop-color="white" stop-opacity="0.8"/>
</linearGradient>
<linearGradient id="paint7_linear_0_310" x1="181.683" y1="316.818" x2="-126.455" y2="93.4526" gradientUnits="userSpaceOnUse">
<stop stop-color="#1CC5DC"/>
<stop offset="1" stop-color="white" stop-opacity="0.8"/>
</linearGradient>
<radialGradient id="paint8_radial_0_310" cx="0" cy="0" r="1" gradientUnits="userSpaceOnUse" gradientTransform="translate(321.89 411.503) rotate(90) scale(139.503)">
<stop offset="0.505208" stop-color="#FB4247" stop-opacity="0"/>
<stop offset="1" stop-color="#FB4247"/>
</radialGradient>
<radialGradient id="paint9_radial_0_310" cx="0" cy="0" r="1" gradientUnits="userSpaceOnUse" gradientTransform="translate(318.341 412.171) rotate(90) scale(66.9466)">
<stop stop-color="#FB4247" stop-opacity="0"/>
<stop offset="1" stop-color="#FB4247"/>
</radialGradient>
<clipPath id="clip0_0_310">
<rect x="329.883" y="121.025" width="275" height="237.204" rx="16" fill="white"/>
</clipPath>
<clipPath id="clip1_0_310">
<rect width="40" height="55" fill="white" transform="translate(546.883 324.026)"/>
</clipPath>
<clipPath id="clip2_0_310">
<rect width="128" height="128" fill="white" transform="translate(60.8828 212.018)"/>
</clipPath>
</defs>
</svg>
