<svg width="774" height="626" viewBox="0 0 774 626" fill="none" xmlns="http://www.w3.org/2000/svg">
<g filter="url(#filter0_d_0_669)">
<g clip-path="url(#clip0_0_669)">
<rect x="332" y="185" width="350" height="325" rx="7" fill="white"/>
<path d="M375.182 465.767C374.595 465.767 374.107 465.654 373.719 465.426C373.337 465.192 373.044 464.788 372.839 464.216C372.633 463.644 372.531 462.86 372.531 461.862C372.531 460.865 372.633 460.08 372.839 459.508C373.044 458.936 373.337 458.537 373.719 458.309C374.107 458.075 374.595 457.957 375.182 457.957C375.761 457.957 376.245 458.075 376.634 458.309C377.022 458.544 377.319 458.947 377.525 459.519C377.73 460.084 377.833 460.865 377.833 461.862C377.833 462.86 377.73 463.644 377.525 464.216C377.319 464.781 377.022 465.181 376.634 465.415C376.245 465.65 375.761 465.767 375.182 465.767ZM375.182 464.964C375.614 464.964 375.952 464.851 376.194 464.623C376.436 464.396 376.601 464.066 376.689 463.633C376.784 463.201 376.832 462.647 376.832 461.972V461.862C376.832 461.166 376.784 460.594 376.689 460.146C376.601 459.699 376.436 459.358 376.194 459.123C375.952 458.881 375.614 458.76 375.182 458.76C374.749 458.76 374.412 458.874 374.17 459.101C373.928 459.329 373.759 459.659 373.664 460.091C373.576 460.524 373.532 461.078 373.532 461.752V461.862C373.532 462.559 373.576 463.131 373.664 463.578C373.759 464.026 373.928 464.37 374.17 464.612C374.412 464.847 374.749 464.964 375.182 464.964Z" fill="#AEB0C0"/>
<path d="M361.546 413.923H363.493V408.555H361.535V407.983C361.887 407.947 362.309 407.855 362.8 407.708C363.299 407.554 363.728 407.378 364.087 407.18H364.461V413.923H366.265V414.726H361.546V413.923ZM369.683 414.858C369.096 414.858 368.608 414.745 368.22 414.517C367.838 414.283 367.545 413.879 367.34 413.307C367.134 412.735 367.032 411.951 367.032 410.953C367.032 409.956 367.134 409.171 367.34 408.599C367.545 408.027 367.838 407.628 368.22 407.4C368.608 407.166 369.096 407.048 369.683 407.048C370.262 407.048 370.746 407.166 371.135 407.4C371.523 407.635 371.82 408.038 372.026 408.61C372.231 409.175 372.334 409.956 372.334 410.953C372.334 411.951 372.231 412.735 372.026 413.307C371.82 413.872 371.523 414.272 371.135 414.506C370.746 414.741 370.262 414.858 369.683 414.858ZM369.683 414.055C370.115 414.055 370.453 413.942 370.695 413.714C370.937 413.487 371.102 413.157 371.19 412.724C371.285 412.292 371.333 411.738 371.333 411.063V410.953C371.333 410.257 371.285 409.685 371.19 409.237C371.102 408.79 370.937 408.449 370.695 408.214C370.453 407.972 370.115 407.851 369.683 407.851C369.25 407.851 368.913 407.965 368.671 408.192C368.429 408.42 368.26 408.75 368.165 409.182C368.077 409.615 368.033 410.169 368.033 410.843V410.953C368.033 411.65 368.077 412.222 368.165 412.669C368.26 413.117 368.429 413.461 368.671 413.703C368.913 413.938 369.25 414.055 369.683 414.055ZM373.474 406.773H374.442V411.778L376.895 408.94H378.094L376.103 411.217L378.204 414.726H377.082L375.498 411.91L374.442 412.911V414.726H373.474V406.773Z" fill="#AEB0C0"/>
<path d="M360.94 363.498C360.94 363.102 361.043 362.739 361.248 362.409C361.453 362.072 361.699 361.779 361.985 361.529C362.278 361.273 362.667 360.968 363.151 360.616C363.54 360.33 363.855 360.088 364.097 359.89C364.339 359.685 364.541 359.476 364.702 359.263C364.951 358.933 365.076 358.596 365.076 358.251C365.076 357.907 364.966 357.61 364.746 357.36C364.533 357.104 364.159 356.975 363.624 356.975C363.074 356.975 362.671 357.111 362.414 357.382C362.157 357.646 362.029 357.991 362.029 358.416V358.867H361.061C361.039 358.743 361.028 358.596 361.028 358.427C361.028 357.665 361.277 357.093 361.776 356.711C362.275 356.33 362.909 356.139 363.679 356.139C364.398 356.139 364.977 356.323 365.417 356.689C365.857 357.049 366.077 357.599 366.077 358.339C366.077 358.735 365.967 359.106 365.747 359.45C365.527 359.795 365.259 360.107 364.944 360.385C364.636 360.657 364.233 360.972 363.734 361.331C363.367 361.595 363.078 361.815 362.865 361.991C362.66 362.16 362.48 362.332 362.326 362.508C362.223 362.618 362.139 362.747 362.073 362.893H366.121V363.817H360.94V363.498ZM369.681 363.949C369.095 363.949 368.607 363.836 368.218 363.608C367.837 363.374 367.544 362.97 367.338 362.398C367.133 361.826 367.03 361.042 367.03 360.044C367.03 359.047 367.133 358.262 367.338 357.69C367.544 357.118 367.837 356.719 368.218 356.491C368.607 356.257 369.095 356.139 369.681 356.139C370.261 356.139 370.745 356.257 371.133 356.491C371.522 356.726 371.819 357.129 372.024 357.701C372.23 358.266 372.332 359.047 372.332 360.044C372.332 361.042 372.23 361.826 372.024 362.398C371.819 362.963 371.522 363.363 371.133 363.597C370.745 363.832 370.261 363.949 369.681 363.949ZM369.681 363.146C370.114 363.146 370.451 363.033 370.693 362.805C370.935 362.578 371.1 362.248 371.188 361.815C371.284 361.383 371.331 360.829 371.331 360.154V360.044C371.331 359.348 371.284 358.776 371.188 358.328C371.1 357.881 370.935 357.54 370.693 357.305C370.451 357.063 370.114 356.942 369.681 356.942C369.249 356.942 368.911 357.056 368.669 357.283C368.427 357.511 368.259 357.841 368.163 358.273C368.075 358.706 368.031 359.26 368.031 359.934V360.044C368.031 360.741 368.075 361.313 368.163 361.76C368.259 362.208 368.427 362.552 368.669 362.794C368.911 363.029 369.249 363.146 369.681 363.146ZM373.473 355.864H374.441V360.869L376.894 358.031H378.093L376.102 360.308L378.203 363.817H377.081L375.497 361.001L374.441 362.002V363.817H373.473V355.864Z" fill="#AEB0C0"/>
<path d="M363.603 313.04C362.738 313.04 362.071 312.839 361.601 312.435C361.132 312.025 360.897 311.471 360.897 310.774V310.686H361.876V310.807C361.876 311.269 362.019 311.625 362.305 311.874C362.591 312.116 362.995 312.237 363.515 312.237C364.051 312.237 364.469 312.12 364.769 311.885C365.077 311.651 365.231 311.295 365.231 310.818C365.231 310.327 365.066 309.982 364.736 309.784C364.414 309.579 363.992 309.476 363.471 309.476H362.679V308.673H363.504C363.944 308.673 364.315 308.56 364.615 308.332C364.916 308.105 365.066 307.779 365.066 307.353C365.066 306.913 364.923 306.583 364.637 306.363C364.359 306.143 364.003 306.033 363.57 306.033C363.108 306.033 362.738 306.151 362.459 306.385C362.181 306.613 362.041 306.95 362.041 307.397V307.496H361.062V307.298C361.062 306.888 361.169 306.528 361.381 306.22C361.594 305.905 361.887 305.663 362.261 305.494C362.643 305.318 363.075 305.23 363.559 305.23C364.322 305.23 364.931 305.41 365.385 305.769C365.84 306.129 366.067 306.638 366.067 307.298C366.067 307.716 365.957 308.061 365.737 308.332C365.517 308.596 365.209 308.816 364.813 308.992V309.036C365.246 309.161 365.591 309.381 365.847 309.696C366.104 310.012 366.232 310.408 366.232 310.884C366.232 311.324 366.119 311.709 365.891 312.039C365.671 312.362 365.363 312.611 364.967 312.787C364.571 312.956 364.117 313.04 363.603 313.04ZM369.683 313.04C369.096 313.04 368.608 312.927 368.22 312.699C367.838 312.465 367.545 312.061 367.34 311.489C367.134 310.917 367.032 310.133 367.032 309.135C367.032 308.138 367.134 307.353 367.34 306.781C367.545 306.209 367.838 305.81 368.22 305.582C368.608 305.348 369.096 305.23 369.683 305.23C370.262 305.23 370.746 305.348 371.135 305.582C371.523 305.817 371.82 306.22 372.026 306.792C372.231 307.357 372.334 308.138 372.334 309.135C372.334 310.133 372.231 310.917 372.026 311.489C371.82 312.054 371.523 312.454 371.135 312.688C370.746 312.923 370.262 313.04 369.683 313.04ZM369.683 312.237C370.115 312.237 370.453 312.124 370.695 311.896C370.937 311.669 371.102 311.339 371.19 310.906C371.285 310.474 371.333 309.92 371.333 309.245V309.135C371.333 308.439 371.285 307.867 371.19 307.419C371.102 306.972 370.937 306.631 370.695 306.396C370.453 306.154 370.115 306.033 369.683 306.033C369.25 306.033 368.913 306.147 368.671 306.374C368.429 306.602 368.26 306.932 368.165 307.364C368.077 307.797 368.033 308.351 368.033 309.025V309.135C368.033 309.832 368.077 310.404 368.165 310.851C368.26 311.299 368.429 311.643 368.671 311.885C368.913 312.12 369.25 312.237 369.683 312.237ZM373.474 304.955H374.442V309.96L376.895 307.122H378.094L376.103 309.399L378.204 312.908H377.082L375.498 310.092L374.442 311.093V312.908H373.474V304.955Z" fill="#AEB0C0"/>
<path d="M364.296 261.049H360.787V260.235C361.264 259.421 361.671 258.607 362.008 257.793C362.346 256.979 362.613 256.125 362.811 255.23H363.856C363.717 255.854 363.512 256.514 363.24 257.21C362.969 257.9 362.69 258.523 362.404 259.08C362.126 259.638 361.902 260.026 361.733 260.246H364.296V257.771C364.45 257.375 364.601 256.902 364.747 256.352H365.264V260.246H366.265V261.049H365.264V262.908H364.296V261.049ZM369.683 263.04C369.096 263.04 368.608 262.927 368.22 262.699C367.838 262.465 367.545 262.061 367.34 261.489C367.134 260.917 367.032 260.133 367.032 259.135C367.032 258.138 367.134 257.353 367.34 256.781C367.545 256.209 367.838 255.81 368.22 255.582C368.608 255.348 369.096 255.23 369.683 255.23C370.262 255.23 370.746 255.348 371.135 255.582C371.523 255.817 371.82 256.22 372.026 256.792C372.231 257.357 372.334 258.138 372.334 259.135C372.334 260.133 372.231 260.917 372.026 261.489C371.82 262.054 371.523 262.454 371.135 262.688C370.746 262.923 370.262 263.04 369.683 263.04ZM369.683 262.237C370.115 262.237 370.453 262.124 370.695 261.896C370.937 261.669 371.102 261.339 371.19 260.906C371.285 260.474 371.333 259.92 371.333 259.245V259.135C371.333 258.439 371.285 257.867 371.19 257.419C371.102 256.972 370.937 256.631 370.695 256.396C370.453 256.154 370.115 256.033 369.683 256.033C369.25 256.033 368.913 256.147 368.671 256.374C368.429 256.602 368.26 256.932 368.165 257.364C368.077 257.797 368.033 258.351 368.033 259.025V259.135C368.033 259.832 368.077 260.404 368.165 260.851C368.26 261.299 368.429 261.643 368.671 261.885C368.913 262.12 369.25 262.237 369.683 262.237ZM373.474 254.955H374.442V259.96L376.895 257.122H378.094L376.103 259.399L378.204 262.908H377.082L375.498 260.092L374.442 261.093V262.908H373.474V254.955Z" fill="#AEB0C0"/>
<path d="M391.773 463.375H644" stroke="#E7EEEE"/>
<path d="M391.773 412.375H644" stroke="#E7EEEE"/>
<path d="M391.773 361.375H644" stroke="#E7EEEE"/>
<path d="M391.773 310.375H644" stroke="#E7EEEE"/>
<path d="M391.773 256.375H644" stroke="#E7EEEE"/>
<path d="M477 395.373H393V463H477H561H645V310C645 310 621.682 345.431 568.726 345.431C515.769 345.431 516.12 395.373 477 395.373Z" fill="url(#paint0_linear_0_669)"/>
<path d="M393 395.68C393 395.68 437.88 395.68 477 395.68C516.12 395.68 515.769 345.558 568.726 345.558C614 345.558 629 326.83 645 310" stroke="#1AC3DA" stroke-width="1.5"/>
<g filter="url(#filter1_d_0_669)">
<ellipse cx="644.09" cy="310.437" rx="12.0895" ry="12.1125" fill="white"/>
<path d="M655.679 310.437C655.679 316.851 650.489 322.049 644.09 322.049C637.69 322.049 632.5 316.851 632.5 310.437C632.5 304.023 637.69 298.824 644.09 298.824C650.489 298.824 655.679 304.023 655.679 310.437Z" stroke="#B0E3EB"/>
</g>
<ellipse cx="644.091" cy="310.437" rx="4.45404" ry="4.4625" fill="#1AC3DA"/>
<line x1="644.5" y1="323" x2="644.5" y2="464" stroke="#D4C2EB" stroke-dasharray="5 5"/>
<circle cx="644.734" cy="463.5" r="2.5" fill="#1AC3DA"/>
<path d="M617 310.5L613.784 315V306L617 310.5Z" fill="black" fill-opacity="0.75"/>
<path d="M537.412 333C536.08 333 535 331.656 535 330L535 291C535 289.343 536.08 288 537.412 288H611.373C612.705 288 613.784 289.343 613.784 291V330C613.784 331.656 612.705 333 611.373 333L537.412 333Z" fill="black" fill-opacity="0.75"/>
<path d="M552.14 308.656C551.117 308.656 550.329 308.417 549.774 307.941C549.219 307.455 548.942 306.801 548.942 305.978V305.783H550.528V306.017C550.528 306.459 550.662 306.797 550.931 307.031C551.2 307.265 551.585 307.382 552.088 307.382C552.573 307.382 552.955 307.269 553.232 307.044C553.509 306.81 553.648 306.459 553.648 305.991C553.648 305.063 553.093 304.6 551.984 304.6H551.23V303.326H552.023C552.439 303.326 552.781 303.209 553.05 302.975C553.319 302.741 553.453 302.407 553.453 301.974C553.453 301.549 553.332 301.233 553.089 301.025C552.846 300.808 552.521 300.7 552.114 300.7C551.681 300.7 551.338 300.808 551.087 301.025C550.836 301.241 550.71 301.562 550.71 301.987V302.195H549.137V301.87C549.137 301.384 549.263 300.96 549.514 300.596C549.765 300.223 550.112 299.937 550.554 299.738C551.005 299.53 551.516 299.426 552.088 299.426C552.989 299.426 553.709 299.638 554.246 300.063C554.792 300.487 555.065 301.09 555.065 301.87C555.065 302.364 554.939 302.771 554.688 303.092C554.437 303.404 554.086 303.664 553.635 303.872V303.924C554.12 304.071 554.51 304.331 554.805 304.704C555.1 305.076 555.247 305.544 555.247 306.108C555.247 306.628 555.113 307.083 554.844 307.473C554.584 307.854 554.22 308.149 553.752 308.357C553.284 308.556 552.747 308.656 552.14 308.656ZM556.27 308.058C556.27 307.572 556.382 307.135 556.608 306.745C556.833 306.346 557.106 305.999 557.427 305.705C557.756 305.41 558.185 305.068 558.714 304.678C559.164 304.34 559.52 304.058 559.78 303.833C560.048 303.599 560.274 303.352 560.456 303.092C560.698 302.745 560.82 302.359 560.82 301.935C560.82 301.605 560.707 301.324 560.482 301.09C560.265 300.847 559.923 300.726 559.455 300.726C558.952 300.726 558.575 300.847 558.324 301.09C558.081 301.324 557.96 301.666 557.96 302.117V302.65H556.413C556.378 302.502 556.361 302.329 556.361 302.13C556.361 301.228 556.66 300.552 557.258 300.102C557.856 299.651 558.614 299.426 559.533 299.426C560.243 299.426 560.811 299.56 561.236 299.829C561.669 300.097 561.972 300.431 562.146 300.83C562.319 301.22 562.406 301.623 562.406 302.039C562.406 302.585 562.271 303.083 562.003 303.534C561.743 303.976 561.431 304.353 561.067 304.665C560.703 304.977 560.235 305.341 559.663 305.757C559.437 305.913 559.216 306.073 559 306.238C558.783 306.402 558.61 306.55 558.48 306.68C558.332 306.827 558.228 306.961 558.168 307.083H562.458V308.5H556.27V308.058ZM570.166 308.656C569.213 308.656 568.45 308.396 567.878 307.876C567.315 307.347 567.033 306.632 567.033 305.731H568.632C568.632 306.233 568.771 306.636 569.048 306.94C569.326 307.234 569.698 307.382 570.166 307.382C570.626 307.382 570.99 307.23 571.258 306.927C571.527 306.623 571.661 306.177 571.661 305.588C571.661 305.059 571.527 304.656 571.258 304.379C570.998 304.093 570.647 303.95 570.205 303.95C569.902 303.95 569.629 304.019 569.386 304.158C569.152 304.296 568.957 304.483 568.801 304.717L567.332 304.522L567.696 299.582H572.818V300.999H569.048L568.905 303.235C569.382 302.879 569.954 302.702 570.621 302.702C571.401 302.702 572.038 302.949 572.532 303.443C573.026 303.928 573.273 304.643 573.273 305.588C573.273 306.558 572.996 307.312 572.441 307.85C571.887 308.387 571.128 308.656 570.166 308.656ZM577.273 308.656C576.346 308.656 575.652 308.4 575.193 307.889C574.734 307.377 574.504 306.706 574.504 305.874H576.09C576.09 306.879 576.506 307.382 577.338 307.382C577.754 307.382 578.07 307.269 578.287 307.044C578.512 306.818 578.664 306.502 578.742 306.095C578.829 305.687 578.876 305.154 578.885 304.496C578.755 304.66 578.512 304.838 578.157 305.029C577.81 305.211 577.407 305.302 576.948 305.302C576.047 305.302 575.366 305.033 574.907 304.496C574.448 303.958 574.218 303.248 574.218 302.364C574.218 301.774 574.344 301.259 574.595 300.817C574.855 300.366 575.21 300.024 575.661 299.79C576.12 299.547 576.636 299.426 577.208 299.426C578.291 299.426 579.106 299.759 579.652 300.427C580.207 301.085 580.484 302.203 580.484 303.781C580.484 304.985 580.358 305.947 580.107 306.667C579.864 307.377 579.509 307.889 579.041 308.201C578.573 308.504 577.984 308.656 577.273 308.656ZM577.286 304.054C577.771 304.054 578.14 303.902 578.391 303.599C578.642 303.287 578.768 302.875 578.768 302.364C578.768 301.87 578.642 301.471 578.391 301.168C578.14 300.856 577.771 300.7 577.286 300.7C576.809 300.7 576.445 300.856 576.194 301.168C575.943 301.48 575.817 301.883 575.817 302.377C575.817 302.888 575.938 303.295 576.181 303.599C576.432 303.902 576.801 304.054 577.286 304.054ZM584.627 308.656C583.561 308.656 582.768 308.417 582.248 307.941C581.728 307.455 581.468 306.827 581.468 306.056C581.468 305.016 581.944 304.305 582.898 303.924C582.499 303.716 582.196 303.438 581.988 303.092C581.788 302.736 581.689 302.342 581.689 301.909C581.689 301.441 581.801 301.02 582.027 300.648C582.252 300.275 582.581 299.98 583.015 299.764C583.457 299.538 583.994 299.426 584.627 299.426C585.251 299.426 585.784 299.538 586.226 299.764C586.668 299.98 586.997 300.275 587.214 300.648C587.439 301.02 587.552 301.441 587.552 301.909C587.552 302.342 587.448 302.736 587.24 303.092C587.04 303.438 586.741 303.716 586.343 303.924C587.305 304.305 587.786 305.016 587.786 306.056C587.786 306.827 587.521 307.455 586.993 307.941C586.473 308.417 585.684 308.656 584.627 308.656ZM584.627 303.313C585.051 303.313 585.385 303.2 585.628 302.975C585.87 302.749 585.992 302.429 585.992 302.013C585.992 301.597 585.87 301.272 585.628 301.038C585.385 300.804 585.051 300.687 584.627 300.687C584.193 300.687 583.855 300.804 583.613 301.038C583.379 301.263 583.262 301.588 583.262 302.013C583.262 302.429 583.379 302.749 583.613 302.975C583.855 303.2 584.193 303.313 584.627 303.313ZM584.627 307.395C585.121 307.395 585.502 307.269 585.771 307.018C586.039 306.766 586.174 306.42 586.174 305.978C586.174 305.536 586.039 305.193 585.771 304.951C585.502 304.699 585.121 304.574 584.627 304.574C584.124 304.574 583.738 304.699 583.47 304.951C583.201 305.193 583.067 305.536 583.067 305.978C583.067 306.428 583.201 306.779 583.47 307.031C583.738 307.273 584.124 307.395 584.627 307.395Z" fill="white"/>
<path d="M548.66 315.14H549.69L551.5 320.13L551.84 321.05H551.89L552.21 320.17L554.03 315.14H555.01L552.46 322H551.21L548.66 315.14ZM555.664 314.77H556.534V315.72H555.664V314.77ZM555.664 316.74H556.544V322H555.664V316.74ZM559.681 322.12C559.194 322.12 558.788 322.05 558.461 321.91C558.141 321.763 557.904 321.573 557.751 321.34C557.598 321.106 557.521 320.853 557.521 320.58C557.521 320.5 557.521 320.446 557.521 320.42C557.528 320.386 557.531 320.366 557.531 320.36H558.401V320.46C558.401 320.773 558.524 321.01 558.771 321.17C559.018 321.323 559.338 321.4 559.731 321.4C560.071 321.4 560.351 321.333 560.571 321.2C560.798 321.06 560.911 320.866 560.911 320.62C560.911 320.426 560.848 320.27 560.721 320.15C560.594 320.023 560.438 319.926 560.251 319.86C560.064 319.786 559.811 319.71 559.491 319.63C559.104 319.53 558.788 319.43 558.541 319.33C558.301 319.23 558.094 319.083 557.921 318.89C557.754 318.69 557.671 318.433 557.671 318.12C557.671 317.66 557.858 317.296 558.231 317.03C558.611 316.756 559.121 316.62 559.761 316.62C560.161 316.62 560.508 316.686 560.801 316.82C561.094 316.946 561.314 317.12 561.461 317.34C561.614 317.553 561.691 317.793 561.691 318.06L561.681 318.25H560.821V318.16C560.821 317.926 560.728 317.733 560.541 317.58C560.361 317.426 560.068 317.35 559.661 317.35C559.261 317.35 558.981 317.423 558.821 317.57C558.661 317.71 558.581 317.873 558.581 318.06C558.581 318.213 558.638 318.34 558.751 318.44C558.864 318.54 559.004 318.62 559.171 318.68C559.338 318.74 559.571 318.806 559.871 318.88C560.284 318.986 560.621 319.093 560.881 319.2C561.141 319.3 561.361 319.456 561.541 319.67C561.728 319.876 561.821 320.153 561.821 320.5C561.821 321.04 561.624 321.446 561.231 321.72C560.844 321.986 560.328 322.12 559.681 322.12ZM562.881 314.77H563.751V315.72H562.881V314.77ZM562.881 316.74H563.761V322H562.881V316.74ZM566.288 322.11C565.928 322.11 565.664 322.003 565.498 321.79C565.331 321.576 565.248 321.313 565.248 321V317.47H564.608V316.74H565.258L565.448 315.28H566.128V316.74H567.018V317.47H566.128V320.92C566.128 321.233 566.274 321.39 566.568 321.39H567.018V321.97C566.931 322.01 566.818 322.043 566.678 322.07C566.538 322.096 566.408 322.11 566.288 322.11ZM569.991 322.12C569.184 322.12 568.578 321.896 568.171 321.45C567.764 320.996 567.561 320.303 567.561 319.37C567.561 318.436 567.764 317.746 568.171 317.3C568.578 316.846 569.184 316.62 569.991 316.62C570.798 316.62 571.404 316.846 571.811 317.3C572.218 317.746 572.421 318.436 572.421 319.37C572.421 320.303 572.218 320.996 571.811 321.45C571.404 321.896 570.798 322.12 569.991 322.12ZM569.991 321.39C570.524 321.39 570.911 321.236 571.151 320.93C571.391 320.616 571.511 320.11 571.511 319.41V319.33C571.511 318.63 571.391 318.126 571.151 317.82C570.911 317.506 570.524 317.35 569.991 317.35C569.458 317.35 569.071 317.506 568.831 317.82C568.591 318.126 568.471 318.63 568.471 319.33V319.41C568.471 320.11 568.591 320.616 568.831 320.93C569.071 321.236 569.458 321.39 569.991 321.39ZM573.438 316.74H574.108L574.208 317.53H574.268C574.368 317.27 574.518 317.053 574.718 316.88C574.918 316.706 575.181 316.62 575.508 316.62C575.688 316.62 575.844 316.646 575.978 316.7V317.55H575.608C575.234 317.55 574.924 317.66 574.678 317.88C574.438 318.093 574.318 318.43 574.318 318.89V322H573.438V316.74ZM578.568 322.12C578.081 322.12 577.674 322.05 577.348 321.91C577.028 321.763 576.791 321.573 576.638 321.34C576.484 321.106 576.408 320.853 576.408 320.58C576.408 320.5 576.408 320.446 576.408 320.42C576.414 320.386 576.418 320.366 576.418 320.36H577.288V320.46C577.288 320.773 577.411 321.01 577.658 321.17C577.904 321.323 578.224 321.4 578.618 321.4C578.958 321.4 579.238 321.333 579.458 321.2C579.684 321.06 579.798 320.866 579.798 320.62C579.798 320.426 579.734 320.27 579.608 320.15C579.481 320.023 579.324 319.926 579.138 319.86C578.951 319.786 578.698 319.71 578.378 319.63C577.991 319.53 577.674 319.43 577.428 319.33C577.188 319.23 576.981 319.083 576.808 318.89C576.641 318.69 576.558 318.433 576.558 318.12C576.558 317.66 576.744 317.296 577.118 317.03C577.498 316.756 578.008 316.62 578.648 316.62C579.048 316.62 579.394 316.686 579.688 316.82C579.981 316.946 580.201 317.12 580.348 317.34C580.501 317.553 580.578 317.793 580.578 318.06L580.568 318.25H579.708V318.16C579.708 317.926 579.614 317.733 579.428 317.58C579.248 317.426 578.954 317.35 578.548 317.35C578.148 317.35 577.868 317.423 577.708 317.57C577.548 317.71 577.468 317.873 577.468 318.06C577.468 318.213 577.524 318.34 577.638 318.44C577.751 318.54 577.891 318.62 578.058 318.68C578.224 318.74 578.458 318.806 578.758 318.88C579.171 318.986 579.508 319.093 579.768 319.2C580.028 319.3 580.248 319.456 580.428 319.67C580.614 319.876 580.708 320.153 580.708 320.5C580.708 321.04 580.511 321.446 580.118 321.72C579.731 321.986 579.214 322.12 578.568 322.12Z" fill="white"/>
</g>
</g>
<g filter="url(#filter2_d_0_669)">
<path d="M92.0039 84.0004C92.0039 75.1638 99.1674 68.0004 108.004 68.0004H426.004C434.84 68.0004 442.004 75.1638 442.004 84.0004V355.662C442.004 362.932 437.175 369.268 430.139 371.096C393.381 380.645 282.969 409 268 409C253.017 409 141.037 380.593 103.918 371.07C96.8577 369.259 92.0039 362.911 92.0039 355.622V84.0004Z" fill="white"/>
</g>
<g filter="url(#filter3_d_0_669)">
<circle cx="265" cy="234.002" r="22.5" stroke="#E3E1E2"/>
<path d="M237.944 322.29C236.68 322.29 235.528 322.106 234.488 321.738C233.448 321.37 232.616 320.81 231.992 320.058C231.368 319.29 231.056 318.346 231.056 317.226L231.08 316.722H234.176C234.16 316.818 234.152 316.962 234.152 317.154C234.152 317.954 234.496 318.578 235.184 319.026C235.872 319.474 236.816 319.698 238.016 319.698C239.296 319.698 240.248 319.514 240.872 319.146C241.496 318.778 241.808 318.266 241.808 317.61C241.808 317.098 241.624 316.674 241.256 316.338C240.888 316.002 240.432 315.738 239.888 315.546C239.344 315.338 238.576 315.098 237.584 314.826C236.272 314.474 235.208 314.138 234.392 313.818C233.592 313.482 232.904 312.994 232.328 312.354C231.752 311.698 231.464 310.842 231.464 309.786C231.464 308.314 232.072 307.194 233.288 306.426C234.504 305.642 236.096 305.25 238.064 305.25C239.952 305.25 241.488 305.65 242.672 306.45C243.872 307.234 244.472 308.426 244.472 310.026V310.314H241.448V310.05C241.448 309.362 241.136 308.826 240.512 308.442C239.904 308.042 239.08 307.842 238.04 307.842C236.952 307.842 236.096 308.002 235.472 308.322C234.864 308.642 234.56 309.09 234.56 309.666C234.56 310.098 234.736 310.466 235.088 310.77C235.44 311.058 235.88 311.298 236.408 311.49C236.952 311.666 237.68 311.874 238.592 312.114C239.92 312.466 241 312.81 241.832 313.146C242.68 313.482 243.4 313.978 243.992 314.634C244.6 315.29 244.904 316.138 244.904 317.178C244.904 318.938 244.28 320.234 243.032 321.066C241.784 321.882 240.088 322.29 237.944 322.29ZM247.688 309.378H250.064L250.304 311.058H250.448C250.864 310.418 251.408 309.93 252.08 309.594C252.752 309.258 253.496 309.09 254.312 309.09C255.912 309.09 257.152 309.634 258.032 310.722C258.912 311.81 259.352 313.474 259.352 315.714C259.352 317.89 258.912 319.53 258.032 320.634C257.152 321.738 255.976 322.29 254.504 322.29C252.744 322.29 251.48 321.706 250.712 320.538H250.568V326.154H247.688V309.378ZM253.448 319.818C254.504 319.818 255.256 319.506 255.704 318.882C256.152 318.242 256.376 317.234 256.376 315.858V315.546C256.376 314.154 256.152 313.146 255.704 312.522C255.256 311.882 254.504 311.562 253.448 311.562C252.456 311.562 251.728 311.898 251.264 312.57C250.8 313.242 250.568 314.234 250.568 315.546V315.834C250.568 317.146 250.8 318.138 251.264 318.81C251.728 319.482 252.456 319.818 253.448 319.818ZM267.147 322.29C265.099 322.29 263.579 321.754 262.587 320.682C261.595 319.61 261.099 317.946 261.099 315.69C261.099 313.434 261.595 311.77 262.587 310.698C263.595 309.626 265.115 309.09 267.147 309.09C269.003 309.09 270.387 309.61 271.299 310.65C272.227 311.69 272.691 313.314 272.691 315.522V316.386H264.027C264.075 317.634 264.339 318.554 264.819 319.146C265.315 319.722 266.099 320.01 267.171 320.01C267.971 320.01 268.619 319.81 269.115 319.41C269.611 318.994 269.859 318.386 269.859 317.586H272.691C272.691 319.138 272.179 320.314 271.155 321.114C270.131 321.898 268.795 322.29 267.147 322.29ZM269.691 314.346C269.691 312.362 268.843 311.37 267.147 311.37C266.187 311.37 265.459 311.618 264.963 312.114C264.483 312.594 264.187 313.338 264.075 314.346H269.691ZM280.483 322.29C278.435 322.29 276.915 321.754 275.923 320.682C274.931 319.61 274.435 317.946 274.435 315.69C274.435 313.434 274.931 311.77 275.923 310.698C276.931 309.626 278.451 309.09 280.483 309.09C282.339 309.09 283.723 309.61 284.635 310.65C285.563 311.69 286.027 313.314 286.027 315.522V316.386H277.363C277.411 317.634 277.675 318.554 278.155 319.146C278.651 319.722 279.435 320.01 280.507 320.01C281.307 320.01 281.955 319.81 282.451 319.41C282.947 318.994 283.195 318.386 283.195 317.586H286.027C286.027 319.138 285.515 320.314 284.491 321.114C283.467 321.898 282.131 322.29 280.483 322.29ZM283.027 314.346C283.027 312.362 282.179 311.37 280.483 311.37C279.523 311.37 278.795 311.618 278.299 312.114C277.819 312.594 277.523 313.338 277.411 314.346H283.027ZM292.787 322.29C291.187 322.29 289.947 321.746 289.067 320.658C288.187 319.57 287.747 317.906 287.747 315.666C287.747 313.49 288.187 311.85 289.067 310.746C289.947 309.642 291.123 309.09 292.595 309.09C294.355 309.09 295.619 309.674 296.387 310.842H296.531V304.65H299.411V322.002H297.035L296.795 320.322H296.651C296.235 320.962 295.691 321.45 295.019 321.786C294.347 322.122 293.603 322.29 292.787 322.29ZM293.651 319.818C294.643 319.818 295.371 319.49 295.835 318.834C296.299 318.162 296.531 317.17 296.531 315.858V315.57C296.531 312.898 295.571 311.562 293.651 311.562C292.595 311.562 291.843 311.882 291.395 312.522C290.947 313.146 290.723 314.154 290.723 315.546V315.858C290.723 317.234 290.947 318.242 291.395 318.882C291.843 319.506 292.595 319.818 293.651 319.818Z" fill="black"/>
<path d="M239.096 171.77H240.752L242.516 176.798C242.588 176.99 242.696 177.306 242.84 177.746C242.944 178.074 243.004 178.254 243.02 178.286H243.08C243.288 177.598 243.448 177.098 243.56 176.786L245.312 171.77H246.896L243.896 180.002H242.108L239.096 171.77ZM250.261 180.146C249.237 180.146 248.477 179.878 247.981 179.342C247.485 178.806 247.237 177.974 247.237 176.846C247.237 175.718 247.485 174.886 247.981 174.35C248.485 173.814 249.245 173.546 250.261 173.546C251.189 173.546 251.881 173.806 252.337 174.326C252.801 174.846 253.033 175.658 253.033 176.762V177.194H248.701C248.725 177.818 248.857 178.278 249.097 178.574C249.345 178.862 249.737 179.006 250.273 179.006C250.673 179.006 250.997 178.906 251.245 178.706C251.493 178.498 251.617 178.194 251.617 177.794H253.033C253.033 178.57 252.777 179.158 252.265 179.558C251.753 179.95 251.085 180.146 250.261 180.146ZM251.533 176.174C251.533 175.182 251.109 174.686 250.261 174.686C249.781 174.686 249.417 174.81 249.169 175.058C248.929 175.298 248.781 175.67 248.725 176.174H251.533ZM254.301 173.69H255.489L255.621 174.686H255.705C255.993 173.926 256.465 173.546 257.121 173.546C257.345 173.546 257.545 173.582 257.721 173.654V175.01H257.265C256.249 175.01 255.741 175.578 255.741 176.714V180.002H254.301V173.69ZM259.57 182.186C259.234 182.186 258.982 182.162 258.814 182.114C258.646 182.074 258.558 182.054 258.55 182.054V181.058H259.198C259.51 181.058 259.77 180.974 259.978 180.806C260.194 180.646 260.362 180.378 260.482 180.002L258.022 173.69H259.534L260.722 176.726C260.858 177.086 261.034 177.67 261.25 178.478H261.31C261.51 177.71 261.674 177.126 261.802 176.726L262.762 173.69H264.214L262.114 179.678C261.826 180.486 261.494 181.106 261.118 181.538C260.742 181.97 260.226 182.186 259.57 182.186ZM268.54 171.77H274.456V173.078H270.076V175.31H274.023V176.618H270.076V180.002H268.54V171.77ZM276.919 180.146C276.407 180.146 275.943 180.022 275.527 179.774C275.119 179.518 274.915 179.05 274.915 178.37C274.915 177.562 275.259 176.994 275.947 176.666C276.635 176.338 277.611 176.174 278.875 176.174V175.646C278.875 175.342 278.795 175.106 278.635 174.938C278.483 174.77 278.203 174.686 277.795 174.686C277.371 174.686 277.071 174.754 276.895 174.89C276.719 175.026 276.631 175.194 276.631 175.394V175.562H275.239C275.231 175.514 275.227 175.426 275.227 175.298C275.227 174.754 275.459 174.326 275.923 174.014C276.395 173.702 277.019 173.546 277.795 173.546C278.635 173.546 279.263 173.718 279.679 174.062C280.103 174.406 280.315 174.898 280.315 175.538V178.55C280.315 178.694 280.355 178.802 280.435 178.874C280.515 178.938 280.615 178.97 280.735 178.97H281.119V179.954C280.863 180.074 280.563 180.134 280.219 180.134C279.907 180.134 279.647 180.058 279.439 179.906C279.231 179.754 279.091 179.546 279.019 179.282H278.935C278.463 179.858 277.791 180.146 276.919 180.146ZM277.351 178.994C277.823 178.994 278.195 178.858 278.467 178.586C278.739 178.314 278.875 177.946 278.875 177.482V177.194C278.099 177.194 277.491 177.27 277.051 177.422C276.611 177.566 276.391 177.834 276.391 178.226C276.391 178.738 276.711 178.994 277.351 178.994ZM284.439 180.146C283.567 180.146 282.891 179.966 282.411 179.606C281.939 179.246 281.703 178.778 281.703 178.202C281.703 178.13 281.703 178.082 281.703 178.058C281.711 178.034 281.715 178.018 281.715 178.01H283.119V178.106C283.127 178.418 283.259 178.65 283.515 178.802C283.779 178.946 284.107 179.018 284.499 179.018C284.851 179.018 285.151 178.962 285.399 178.85C285.647 178.73 285.771 178.554 285.771 178.322C285.771 178.138 285.703 177.99 285.567 177.878C285.431 177.758 285.263 177.666 285.063 177.602C284.863 177.53 284.579 177.45 284.211 177.362C283.715 177.242 283.307 177.122 282.987 177.002C282.675 176.882 282.407 176.694 282.183 176.438C281.959 176.182 281.847 175.846 281.847 175.43C281.847 174.83 282.095 174.366 282.591 174.038C283.087 173.71 283.731 173.546 284.523 173.546C285.011 173.546 285.447 173.618 285.831 173.762C286.215 173.906 286.511 174.11 286.719 174.374C286.935 174.63 287.043 174.926 287.043 175.262L287.031 175.526H285.627V175.478C285.627 175.23 285.523 175.038 285.315 174.902C285.115 174.758 284.823 174.686 284.439 174.686C284.063 174.686 283.779 174.746 283.587 174.866C283.395 174.978 283.299 175.126 283.299 175.31C283.299 175.534 283.415 175.702 283.647 175.814C283.887 175.918 284.251 176.022 284.739 176.126C285.267 176.246 285.691 176.37 286.011 176.498C286.339 176.618 286.623 176.81 286.863 177.074C287.103 177.338 287.223 177.694 287.223 178.142C287.223 178.838 286.971 179.346 286.467 179.666C285.971 179.986 285.295 180.146 284.439 180.146ZM290.092 180.146C289.556 180.146 289.168 179.998 288.928 179.702C288.696 179.398 288.58 179.022 288.58 178.574V174.866H287.812V173.69H288.604L288.868 171.926H290.02V173.69H291.1V174.866H290.02V178.43C290.02 178.79 290.192 178.97 290.536 178.97H291.1V179.954C290.972 180.002 290.812 180.046 290.62 180.086C290.428 180.126 290.252 180.146 290.092 180.146Z" fill="#FB4247"/>
<ellipse cx="263.485" cy="233.08" rx="4.44447" ry="4.44447" transform="rotate(119.819 263.485 233.08)" fill="black"/>
<path d="M330.484 272.199L265.858 229.29L261.427 237.021L330.484 272.199Z" fill="black"/>
<path d="M153.509 303.39C143.479 285.127 137.734 264.125 137.734 241.844C137.734 171.257 194.905 114.002 265.388 114.002C335.87 114.002 393.041 171.257 393.041 241.844C393.041 263.942 387.479 284.671 377.631 302.751" stroke="#E3E1E2" stroke-width="8" stroke-linecap="round"/>
<path d="M153.509 303.39C143.479 285.127 137.734 264.125 137.734 241.844C137.734 171.257 194.905 114.002 265.388 114.002C335.87 114.002 393.041 171.257 393.041 241.844C393.041 263.942 387.479 284.671 377.631 302.751" stroke="url(#paint1_angular_0_669)" stroke-width="12" stroke-linecap="round"/>
<path d="M266.305 142.546V136.893" stroke="#E3E1E2" stroke-width="1.5" stroke-linecap="round"/>
<path d="M245.952 144.43L244.699 138.777" stroke="#E3E1E2" stroke-width="1.5" stroke-linecap="round"/>
<path d="M227.164 150.711L225.285 145.686" stroke="#E3E1E2" stroke-width="1.5" stroke-linecap="round"/>
<path d="M210.882 160.76L207.125 155.735" stroke="#E3E1E2" stroke-width="1.5" stroke-linecap="round"/>
<path d="M195.852 173.949L191.469 169.553" stroke="#E3E1E2" stroke-width="1.5" stroke-linecap="round"/>
<path d="M183.33 190.279L178.32 186.511" stroke="#E3E1E2" stroke-width="1.5" stroke-linecap="round"/>
<path d="M174.562 207.237L168.926 205.353" stroke="#E3E1E2" stroke-width="1.5" stroke-linecap="round"/>
<path d="M168.925 226.079L163.289 225.451" stroke="#E3E1E2" stroke-width="1.5" stroke-linecap="round"/>
<path d="M168.3 246.303L162.664 246.68" stroke="#E3E1E2" stroke-width="1.5" stroke-linecap="round"/>
<path d="M172.058 266.276L166.422 267.532" stroke="#E3E1E2" stroke-width="1.5" stroke-linecap="round"/>
<path d="M179.572 285.118L174.562 288.258" stroke="#E3E1E2" stroke-width="1.5" stroke-linecap="round"/>
<path d="M286.031 144.43L287.284 138.777" stroke="#E3E1E2" stroke-width="1.5" stroke-linecap="round"/>
<path d="M304.816 150.711L306.695 145.686" stroke="#E3E1E2" stroke-width="1.5" stroke-linecap="round"/>
<path d="M321.098 160.76L324.855 155.735" stroke="#E3E1E2" stroke-width="1.5" stroke-linecap="round"/>
<path d="M336.129 173.949L340.512 169.553" stroke="#E3E1E2" stroke-width="1.5" stroke-linecap="round"/>
<path d="M348.652 190.279L353.662 186.511" stroke="#E3E1E2" stroke-width="1.5" stroke-linecap="round"/>
<path d="M357.418 207.237L363.054 205.353" stroke="#E3E1E2" stroke-width="1.5" stroke-linecap="round"/>
<path d="M363.055 226.079L368.691 225.451" stroke="#E3E1E2" stroke-width="1.5" stroke-linecap="round"/>
<path d="M363.68 246.303L369.316 246.68" stroke="#E3E1E2" stroke-width="1.5" stroke-linecap="round"/>
<path d="M359.922 266.276L365.558 267.532" stroke="#E3E1E2" stroke-width="1.5" stroke-linecap="round"/>
<path d="M352.41 285.118L357.42 288.258" stroke="#E3E1E2" stroke-width="1.5" stroke-linecap="round"/>
<g filter="url(#filter4_d_0_669)">
<path d="M379.524 304.727C383.78 304.727 387.231 301.266 387.231 296.997C387.231 292.727 383.78 289.266 379.524 289.266C375.267 289.266 371.816 292.727 371.816 296.997C371.816 301.266 375.267 304.727 379.524 304.727Z" fill="black"/>
</g>
<path d="M378.397 310.905C384.782 310.905 389.958 305.714 389.958 299.31C389.958 292.906 384.782 287.715 378.397 287.715C372.012 287.715 366.836 292.906 366.836 299.31C366.836 305.714 372.012 310.905 378.397 310.905Z" fill="#FB4247" stroke="white" stroke-width="8"/>
</g>
<defs>
<filter id="filter0_d_0_669" x="240" y="141" width="534" height="485" filterUnits="userSpaceOnUse" color-interpolation-filters="sRGB">
<feFlood flood-opacity="0" result="BackgroundImageFix"/>
<feColorMatrix in="SourceAlpha" type="matrix" values="0 0 0 0 0 0 0 0 0 0 0 0 0 0 0 0 0 0 127 0" result="hardAlpha"/>
<feMorphology radius="8" operator="erode" in="SourceAlpha" result="effect1_dropShadow_0_669"/>
<feOffset dy="24"/>
<feGaussianBlur stdDeviation="50"/>
<feColorMatrix type="matrix" values="0 0 0 0 0 0 0 0 0 0 0 0 0 0 0 0 0 0 0.1 0"/>
<feBlend mode="normal" in2="BackgroundImageFix" result="effect1_dropShadow_0_669"/>
<feBlend mode="normal" in="SourceGraphic" in2="effect1_dropShadow_0_669" result="shape"/>
</filter>
<filter id="filter1_d_0_669" x="620" y="288.324" width="48.1797" height="48.225" filterUnits="userSpaceOnUse" color-interpolation-filters="sRGB">
<feFlood flood-opacity="0" result="BackgroundImageFix"/>
<feColorMatrix in="SourceAlpha" type="matrix" values="0 0 0 0 0 0 0 0 0 0 0 0 0 0 0 0 0 0 127 0" result="hardAlpha"/>
<feOffset dy="2"/>
<feGaussianBlur stdDeviation="6"/>
<feColorMatrix type="matrix" values="0 0 0 0 0.256667 0 0 0 0 0.35 0 0 0 0 0.346175 0 0 0 0.02 0"/>
<feBlend mode="normal" in2="BackgroundImageFix" result="effect1_dropShadow_0_669"/>
<feBlend mode="normal" in="SourceGraphic" in2="effect1_dropShadow_0_669" result="shape"/>
</filter>
<filter id="filter2_d_0_669" x="0.00390625" y="0.000366211" width="534" height="525" filterUnits="userSpaceOnUse" color-interpolation-filters="sRGB">
<feFlood flood-opacity="0" result="BackgroundImageFix"/>
<feColorMatrix in="SourceAlpha" type="matrix" values="0 0 0 0 0 0 0 0 0 0 0 0 0 0 0 0 0 0 127 0" result="hardAlpha"/>
<feMorphology radius="8" operator="erode" in="SourceAlpha" result="effect1_dropShadow_0_669"/>
<feOffset dy="24"/>
<feGaussianBlur stdDeviation="50"/>
<feColorMatrix type="matrix" values="0 0 0 0 0 0 0 0 0 0 0 0 0 0 0 0 0 0 0.1 0"/>
<feBlend mode="normal" in2="BackgroundImageFix" result="effect1_dropShadow_0_669"/>
<feBlend mode="normal" in="SourceGraphic" in2="effect1_dropShadow_0_669" result="shape"/>
</filter>
<filter id="filter3_d_0_669" x="1" y="-0.999268" width="534" height="485" filterUnits="userSpaceOnUse" color-interpolation-filters="sRGB">
<feFlood flood-opacity="0" result="BackgroundImageFix"/>
<feColorMatrix in="SourceAlpha" type="matrix" values="0 0 0 0 0 0 0 0 0 0 0 0 0 0 0 0 0 0 127 0" result="hardAlpha"/>
<feMorphology radius="8" operator="erode" in="SourceAlpha" result="effect1_dropShadow_0_669"/>
<feOffset dy="24"/>
<feGaussianBlur stdDeviation="50"/>
<feColorMatrix type="matrix" values="0 0 0 0 0 0 0 0 0 0 0 0 0 0 0 0 0 0 0.1 0"/>
<feBlend mode="normal" in2="BackgroundImageFix" result="effect1_dropShadow_0_669"/>
<feBlend mode="normal" in="SourceGraphic" in2="effect1_dropShadow_0_669" result="shape"/>
</filter>
<filter id="filter4_d_0_669" x="351.816" y="277.266" width="55.4141" height="55.4602" filterUnits="userSpaceOnUse" color-interpolation-filters="sRGB">
<feFlood flood-opacity="0" result="BackgroundImageFix"/>
<feColorMatrix in="SourceAlpha" type="matrix" values="0 0 0 0 0 0 0 0 0 0 0 0 0 0 0 0 0 0 127 0" result="hardAlpha"/>
<feOffset dy="8"/>
<feGaussianBlur stdDeviation="10"/>
<feColorMatrix type="matrix" values="0 0 0 0 0 0 0 0 0 0 0 0 0 0 0 0 0 0 0.4 0"/>
<feBlend mode="normal" in2="BackgroundImageFix" result="effect1_dropShadow_0_669"/>
<feBlend mode="normal" in="SourceGraphic" in2="effect1_dropShadow_0_669" result="shape"/>
</filter>
<linearGradient id="paint0_linear_0_669" x1="519" y1="310" x2="519" y2="463" gradientUnits="userSpaceOnUse">
<stop stop-color="#1AC3DA" stop-opacity="0.29"/>
<stop offset="1" stop-color="#1AC3DA" stop-opacity="0"/>
</linearGradient>
<radialGradient id="paint1_angular_0_669" cx="0" cy="0" r="1" gradientUnits="userSpaceOnUse" gradientTransform="translate(264.906 241.674) rotate(90) scale(93.348 93.3978)">
<stop offset="0.176958" stop-color="#1AC3DA"/>
<stop offset="0.822215" stop-color="#FB4247"/>
</radialGradient>
<clipPath id="clip0_0_669">
<rect x="332" y="209" width="350" height="301" rx="16" fill="white"/>
</clipPath>
</defs>
</svg>
