<svg width="834" height="626" viewBox="0 0 834 626" fill="none" xmlns="http://www.w3.org/2000/svg">
<rect x="43" y="254" width="111" height="37" rx="18.5" fill="url(#paint0_linear_0_660)"/>
<rect opacity="0.5" x="171" y="447" width="299" height="122" rx="61" fill="url(#paint1_linear_0_660)"/>
<rect x="1" y="345" width="532" height="162" rx="81" stroke="url(#paint2_linear_0_660)" stroke-linecap="round"/>
<rect x="72" y="130" width="132" height="86" rx="43" fill="url(#paint3_linear_0_660)"/>
<path fill-rule="evenodd" clip-rule="evenodd" d="M692.367 86.9995C692.367 122.346 663.713 151 628.367 151L453.002 151C417.656 151 389.002 122.346 389.002 86.9995C389.002 51.6533 417.656 22.9995 453.002 22.9995L628.367 22.9995C663.713 22.9995 692.367 51.6533 692.367 86.9995Z" fill="url(#paint4_linear_0_660)"/>
<circle cx="625.996" cy="86.9995" r="45" stroke="url(#paint5_linear_0_660)" stroke-width="2"/>
<g filter="url(#filter0_b_0_660)">
<circle cx="269.426" cy="212.425" r="64" transform="rotate(30 269.426 212.425)" fill="url(#paint6_linear_0_660)"/>
</g>
<g filter="url(#filter1_d_0_660)">
<g clip-path="url(#clip0_0_660)">
<rect x="392" y="185" width="350" height="325" rx="7" fill="white"/>
<path d="M435.182 465.767C434.595 465.767 434.107 465.654 433.719 465.426C433.337 465.192 433.044 464.788 432.839 464.216C432.633 463.644 432.531 462.86 432.531 461.862C432.531 460.865 432.633 460.08 432.839 459.508C433.044 458.936 433.337 458.537 433.719 458.309C434.107 458.075 434.595 457.957 435.182 457.957C435.761 457.957 436.245 458.075 436.634 458.309C437.022 458.544 437.319 458.947 437.525 459.519C437.73 460.084 437.833 460.865 437.833 461.862C437.833 462.86 437.73 463.644 437.525 464.216C437.319 464.781 437.022 465.181 436.634 465.415C436.245 465.65 435.761 465.767 435.182 465.767ZM435.182 464.964C435.614 464.964 435.952 464.851 436.194 464.623C436.436 464.396 436.601 464.066 436.689 463.633C436.784 463.201 436.832 462.647 436.832 461.972V461.862C436.832 461.166 436.784 460.594 436.689 460.146C436.601 459.699 436.436 459.358 436.194 459.123C435.952 458.881 435.614 458.76 435.182 458.76C434.749 458.76 434.412 458.874 434.17 459.101C433.928 459.329 433.759 459.659 433.664 460.091C433.576 460.524 433.532 461.078 433.532 461.752V461.862C433.532 462.559 433.576 463.131 433.664 463.578C433.759 464.026 433.928 464.37 434.17 464.612C434.412 464.847 434.749 464.964 435.182 464.964Z" fill="#AEB0C0"/>
<path d="M421.546 413.923H423.493V408.555H421.535V407.983C421.887 407.947 422.309 407.855 422.8 407.708C423.299 407.554 423.728 407.378 424.087 407.18H424.461V413.923H426.265V414.726H421.546V413.923ZM429.683 414.858C429.096 414.858 428.608 414.745 428.22 414.517C427.838 414.283 427.545 413.879 427.34 413.307C427.134 412.735 427.032 411.951 427.032 410.953C427.032 409.956 427.134 409.171 427.34 408.599C427.545 408.027 427.838 407.628 428.22 407.4C428.608 407.166 429.096 407.048 429.683 407.048C430.262 407.048 430.746 407.166 431.135 407.4C431.523 407.635 431.82 408.038 432.026 408.61C432.231 409.175 432.334 409.956 432.334 410.953C432.334 411.951 432.231 412.735 432.026 413.307C431.82 413.872 431.523 414.272 431.135 414.506C430.746 414.741 430.262 414.858 429.683 414.858ZM429.683 414.055C430.115 414.055 430.453 413.942 430.695 413.714C430.937 413.487 431.102 413.157 431.19 412.724C431.285 412.292 431.333 411.738 431.333 411.063V410.953C431.333 410.257 431.285 409.685 431.19 409.237C431.102 408.79 430.937 408.449 430.695 408.214C430.453 407.972 430.115 407.851 429.683 407.851C429.25 407.851 428.913 407.965 428.671 408.192C428.429 408.42 428.26 408.75 428.165 409.182C428.077 409.615 428.033 410.169 428.033 410.843V410.953C428.033 411.65 428.077 412.222 428.165 412.669C428.26 413.117 428.429 413.461 428.671 413.703C428.913 413.938 429.25 414.055 429.683 414.055ZM433.474 406.773H434.442V411.778L436.895 408.94H438.094L436.103 411.217L438.204 414.726H437.082L435.498 411.91L434.442 412.911V414.726H433.474V406.773Z" fill="#AEB0C0"/>
<path d="M420.94 363.498C420.94 363.102 421.043 362.739 421.248 362.409C421.453 362.072 421.699 361.779 421.985 361.529C422.278 361.273 422.667 360.968 423.151 360.616C423.54 360.33 423.855 360.088 424.097 359.89C424.339 359.685 424.541 359.476 424.702 359.263C424.951 358.933 425.076 358.596 425.076 358.251C425.076 357.907 424.966 357.61 424.746 357.36C424.533 357.104 424.159 356.975 423.624 356.975C423.074 356.975 422.671 357.111 422.414 357.382C422.157 357.646 422.029 357.991 422.029 358.416V358.867H421.061C421.039 358.743 421.028 358.596 421.028 358.427C421.028 357.665 421.277 357.093 421.776 356.711C422.275 356.33 422.909 356.139 423.679 356.139C424.398 356.139 424.977 356.323 425.417 356.689C425.857 357.049 426.077 357.599 426.077 358.339C426.077 358.735 425.967 359.106 425.747 359.45C425.527 359.795 425.259 360.107 424.944 360.385C424.636 360.657 424.233 360.972 423.734 361.331C423.367 361.595 423.078 361.815 422.865 361.991C422.66 362.16 422.48 362.332 422.326 362.508C422.223 362.618 422.139 362.747 422.073 362.893H426.121V363.817H420.94V363.498ZM429.681 363.949C429.095 363.949 428.607 363.836 428.218 363.608C427.837 363.374 427.544 362.97 427.338 362.398C427.133 361.826 427.03 361.042 427.03 360.044C427.03 359.047 427.133 358.262 427.338 357.69C427.544 357.118 427.837 356.719 428.218 356.491C428.607 356.257 429.095 356.139 429.681 356.139C430.261 356.139 430.745 356.257 431.133 356.491C431.522 356.726 431.819 357.129 432.024 357.701C432.23 358.266 432.332 359.047 432.332 360.044C432.332 361.042 432.23 361.826 432.024 362.398C431.819 362.963 431.522 363.363 431.133 363.597C430.745 363.832 430.261 363.949 429.681 363.949ZM429.681 363.146C430.114 363.146 430.451 363.033 430.693 362.805C430.935 362.578 431.1 362.248 431.188 361.815C431.284 361.383 431.331 360.829 431.331 360.154V360.044C431.331 359.348 431.284 358.776 431.188 358.328C431.1 357.881 430.935 357.54 430.693 357.305C430.451 357.063 430.114 356.942 429.681 356.942C429.249 356.942 428.911 357.056 428.669 357.283C428.427 357.511 428.259 357.841 428.163 358.273C428.075 358.706 428.031 359.26 428.031 359.934V360.044C428.031 360.741 428.075 361.313 428.163 361.76C428.259 362.208 428.427 362.552 428.669 362.794C428.911 363.029 429.249 363.146 429.681 363.146ZM433.473 355.864H434.441V360.869L436.894 358.031H438.093L436.102 360.308L438.203 363.817H437.081L435.497 361.001L434.441 362.002V363.817H433.473V355.864Z" fill="#AEB0C0"/>
<path d="M423.603 313.04C422.738 313.04 422.071 312.839 421.601 312.435C421.132 312.025 420.897 311.471 420.897 310.774V310.686H421.876V310.807C421.876 311.269 422.019 311.625 422.305 311.874C422.591 312.116 422.995 312.237 423.515 312.237C424.051 312.237 424.469 312.12 424.769 311.885C425.077 311.651 425.231 311.295 425.231 310.818C425.231 310.327 425.066 309.982 424.736 309.784C424.414 309.579 423.992 309.476 423.471 309.476H422.679V308.673H423.504C423.944 308.673 424.315 308.56 424.615 308.332C424.916 308.105 425.066 307.779 425.066 307.353C425.066 306.913 424.923 306.583 424.637 306.363C424.359 306.143 424.003 306.033 423.57 306.033C423.108 306.033 422.738 306.151 422.459 306.385C422.181 306.613 422.041 306.95 422.041 307.397V307.496H421.062V307.298C421.062 306.888 421.169 306.528 421.381 306.22C421.594 305.905 421.887 305.663 422.261 305.494C422.643 305.318 423.075 305.23 423.559 305.23C424.322 305.23 424.931 305.41 425.385 305.769C425.84 306.129 426.067 306.638 426.067 307.298C426.067 307.716 425.957 308.061 425.737 308.332C425.517 308.596 425.209 308.816 424.813 308.992V309.036C425.246 309.161 425.591 309.381 425.847 309.696C426.104 310.012 426.232 310.408 426.232 310.884C426.232 311.324 426.119 311.709 425.891 312.039C425.671 312.362 425.363 312.611 424.967 312.787C424.571 312.956 424.117 313.04 423.603 313.04ZM429.683 313.04C429.096 313.04 428.608 312.927 428.22 312.699C427.838 312.465 427.545 312.061 427.34 311.489C427.134 310.917 427.032 310.133 427.032 309.135C427.032 308.138 427.134 307.353 427.34 306.781C427.545 306.209 427.838 305.81 428.22 305.582C428.608 305.348 429.096 305.23 429.683 305.23C430.262 305.23 430.746 305.348 431.135 305.582C431.523 305.817 431.82 306.22 432.026 306.792C432.231 307.357 432.334 308.138 432.334 309.135C432.334 310.133 432.231 310.917 432.026 311.489C431.82 312.054 431.523 312.454 431.135 312.688C430.746 312.923 430.262 313.04 429.683 313.04ZM429.683 312.237C430.115 312.237 430.453 312.124 430.695 311.896C430.937 311.669 431.102 311.339 431.19 310.906C431.285 310.474 431.333 309.92 431.333 309.245V309.135C431.333 308.439 431.285 307.867 431.19 307.419C431.102 306.972 430.937 306.631 430.695 306.396C430.453 306.154 430.115 306.033 429.683 306.033C429.25 306.033 428.913 306.147 428.671 306.374C428.429 306.602 428.26 306.932 428.165 307.364C428.077 307.797 428.033 308.351 428.033 309.025V309.135C428.033 309.832 428.077 310.404 428.165 310.851C428.26 311.299 428.429 311.643 428.671 311.885C428.913 312.12 429.25 312.237 429.683 312.237ZM433.474 304.955H434.442V309.96L436.895 307.122H438.094L436.103 309.399L438.204 312.908H437.082L435.498 310.092L434.442 311.093V312.908H433.474V304.955Z" fill="#AEB0C0"/>
<path d="M424.296 261.049H420.787V260.235C421.264 259.421 421.671 258.607 422.008 257.793C422.346 256.979 422.613 256.125 422.811 255.23H423.856C423.717 255.854 423.512 256.514 423.24 257.21C422.969 257.9 422.69 258.523 422.404 259.08C422.126 259.638 421.902 260.026 421.733 260.246H424.296V257.771C424.45 257.375 424.601 256.902 424.747 256.352H425.264V260.246H426.265V261.049H425.264V262.908H424.296V261.049ZM429.683 263.04C429.096 263.04 428.608 262.927 428.22 262.699C427.838 262.465 427.545 262.061 427.34 261.489C427.134 260.917 427.032 260.133 427.032 259.135C427.032 258.138 427.134 257.353 427.34 256.781C427.545 256.209 427.838 255.81 428.22 255.582C428.608 255.348 429.096 255.23 429.683 255.23C430.262 255.23 430.746 255.348 431.135 255.582C431.523 255.817 431.82 256.22 432.026 256.792C432.231 257.357 432.334 258.138 432.334 259.135C432.334 260.133 432.231 260.917 432.026 261.489C431.82 262.054 431.523 262.454 431.135 262.688C430.746 262.923 430.262 263.04 429.683 263.04ZM429.683 262.237C430.115 262.237 430.453 262.124 430.695 261.896C430.937 261.669 431.102 261.339 431.19 260.906C431.285 260.474 431.333 259.92 431.333 259.245V259.135C431.333 258.439 431.285 257.867 431.19 257.419C431.102 256.972 430.937 256.631 430.695 256.396C430.453 256.154 430.115 256.033 429.683 256.033C429.25 256.033 428.913 256.147 428.671 256.374C428.429 256.602 428.26 256.932 428.165 257.364C428.077 257.797 428.033 258.351 428.033 259.025V259.135C428.033 259.832 428.077 260.404 428.165 260.851C428.26 261.299 428.429 261.643 428.671 261.885C428.913 262.12 429.25 262.237 429.683 262.237ZM433.474 254.955H434.442V259.96L436.895 257.122H438.094L436.103 259.399L438.204 262.908H437.082L435.498 260.092L434.442 261.093V262.908H433.474V254.955Z" fill="#AEB0C0"/>
<path d="M451.773 463.375H704" stroke="#E7EEEE"/>
<path d="M451.773 412.375H704" stroke="#E7EEEE"/>
<path d="M451.773 361.375H704" stroke="#E7EEEE"/>
<path d="M451.773 310.375H704" stroke="#E7EEEE"/>
<path d="M451.773 256.375H704" stroke="#E7EEEE"/>
<path d="M537 395.373H453V463H537H621H705V310C705 310 681.682 345.431 628.726 345.431C575.769 345.431 576.12 395.373 537 395.373Z" fill="url(#paint7_linear_0_660)"/>
<path d="M453 395.68C453 395.68 497.88 395.68 537 395.68C576.12 395.68 575.769 345.558 628.726 345.558C674 345.558 689 326.83 705 310" stroke="#1AC3DA" stroke-width="1.5"/>
<g filter="url(#filter2_d_0_660)">
<ellipse cx="704.09" cy="310.437" rx="12.0895" ry="12.1125" fill="white"/>
<path d="M715.679 310.437C715.679 316.851 710.489 322.049 704.09 322.049C697.69 322.049 692.5 316.851 692.5 310.437C692.5 304.023 697.69 298.824 704.09 298.824C710.489 298.824 715.679 304.023 715.679 310.437Z" stroke="#B0E3EB"/>
</g>
<ellipse cx="704.091" cy="310.437" rx="4.45404" ry="4.4625" fill="#1AC3DA"/>
<line x1="704.5" y1="323" x2="704.5" y2="464" stroke="#D4C2EB" stroke-dasharray="5 5"/>
<circle cx="704.734" cy="463.5" r="2.5" fill="#1AC3DA"/>
<path d="M677 310.5L673.784 315V306L677 310.5Z" fill="black" fill-opacity="0.75"/>
<path d="M597.412 333C596.08 333 595 331.656 595 330L595 291C595 289.343 596.08 288 597.412 288H671.373C672.705 288 673.784 289.343 673.784 291V330C673.784 331.656 672.705 333 671.373 333L597.412 333Z" fill="black" fill-opacity="0.75"/>
<path d="M612.14 308.656C611.117 308.656 610.329 308.417 609.774 307.941C609.219 307.455 608.942 306.801 608.942 305.978V305.783H610.528V306.017C610.528 306.459 610.662 306.797 610.931 307.031C611.2 307.265 611.585 307.382 612.088 307.382C612.573 307.382 612.955 307.269 613.232 307.044C613.509 306.81 613.648 306.459 613.648 305.991C613.648 305.063 613.093 304.6 611.984 304.6H611.23V303.326H612.023C612.439 303.326 612.781 303.209 613.05 302.975C613.319 302.741 613.453 302.407 613.453 301.974C613.453 301.549 613.332 301.233 613.089 301.025C612.846 300.808 612.521 300.7 612.114 300.7C611.681 300.7 611.338 300.808 611.087 301.025C610.836 301.241 610.71 301.562 610.71 301.987V302.195H609.137V301.87C609.137 301.384 609.263 300.96 609.514 300.596C609.765 300.223 610.112 299.937 610.554 299.738C611.005 299.53 611.516 299.426 612.088 299.426C612.989 299.426 613.709 299.638 614.246 300.063C614.792 300.487 615.065 301.09 615.065 301.87C615.065 302.364 614.939 302.771 614.688 303.092C614.437 303.404 614.086 303.664 613.635 303.872V303.924C614.12 304.071 614.51 304.331 614.805 304.704C615.1 305.076 615.247 305.544 615.247 306.108C615.247 306.628 615.113 307.083 614.844 307.473C614.584 307.854 614.22 308.149 613.752 308.357C613.284 308.556 612.747 308.656 612.14 308.656ZM616.27 308.058C616.27 307.572 616.382 307.135 616.608 306.745C616.833 306.346 617.106 305.999 617.427 305.705C617.756 305.41 618.185 305.068 618.714 304.678C619.164 304.34 619.52 304.058 619.78 303.833C620.048 303.599 620.274 303.352 620.456 303.092C620.698 302.745 620.82 302.359 620.82 301.935C620.82 301.605 620.707 301.324 620.482 301.09C620.265 300.847 619.923 300.726 619.455 300.726C618.952 300.726 618.575 300.847 618.324 301.09C618.081 301.324 617.96 301.666 617.96 302.117V302.65H616.413C616.378 302.502 616.361 302.329 616.361 302.13C616.361 301.228 616.66 300.552 617.258 300.102C617.856 299.651 618.614 299.426 619.533 299.426C620.243 299.426 620.811 299.56 621.236 299.829C621.669 300.097 621.972 300.431 622.146 300.83C622.319 301.22 622.406 301.623 622.406 302.039C622.406 302.585 622.271 303.083 622.003 303.534C621.743 303.976 621.431 304.353 621.067 304.665C620.703 304.977 620.235 305.341 619.663 305.757C619.437 305.913 619.216 306.073 619 306.238C618.783 306.402 618.61 306.55 618.48 306.68C618.332 306.827 618.228 306.961 618.168 307.083H622.458V308.5H616.27V308.058ZM630.166 308.656C629.213 308.656 628.45 308.396 627.878 307.876C627.315 307.347 627.033 306.632 627.033 305.731H628.632C628.632 306.233 628.771 306.636 629.048 306.94C629.326 307.234 629.698 307.382 630.166 307.382C630.626 307.382 630.99 307.23 631.258 306.927C631.527 306.623 631.661 306.177 631.661 305.588C631.661 305.059 631.527 304.656 631.258 304.379C630.998 304.093 630.647 303.95 630.205 303.95C629.902 303.95 629.629 304.019 629.386 304.158C629.152 304.296 628.957 304.483 628.801 304.717L627.332 304.522L627.696 299.582H632.818V300.999H629.048L628.905 303.235C629.382 302.879 629.954 302.702 630.621 302.702C631.401 302.702 632.038 302.949 632.532 303.443C633.026 303.928 633.273 304.643 633.273 305.588C633.273 306.558 632.996 307.312 632.441 307.85C631.887 308.387 631.128 308.656 630.166 308.656ZM637.273 308.656C636.346 308.656 635.652 308.4 635.193 307.889C634.734 307.377 634.504 306.706 634.504 305.874H636.09C636.09 306.879 636.506 307.382 637.338 307.382C637.754 307.382 638.07 307.269 638.287 307.044C638.512 306.818 638.664 306.502 638.742 306.095C638.829 305.687 638.876 305.154 638.885 304.496C638.755 304.66 638.512 304.838 638.157 305.029C637.81 305.211 637.407 305.302 636.948 305.302C636.047 305.302 635.366 305.033 634.907 304.496C634.448 303.958 634.218 303.248 634.218 302.364C634.218 301.774 634.344 301.259 634.595 300.817C634.855 300.366 635.21 300.024 635.661 299.79C636.12 299.547 636.636 299.426 637.208 299.426C638.291 299.426 639.106 299.759 639.652 300.427C640.207 301.085 640.484 302.203 640.484 303.781C640.484 304.985 640.358 305.947 640.107 306.667C639.864 307.377 639.509 307.889 639.041 308.201C638.573 308.504 637.984 308.656 637.273 308.656ZM637.286 304.054C637.771 304.054 638.14 303.902 638.391 303.599C638.642 303.287 638.768 302.875 638.768 302.364C638.768 301.87 638.642 301.471 638.391 301.168C638.14 300.856 637.771 300.7 637.286 300.7C636.809 300.7 636.445 300.856 636.194 301.168C635.943 301.48 635.817 301.883 635.817 302.377C635.817 302.888 635.938 303.295 636.181 303.599C636.432 303.902 636.801 304.054 637.286 304.054ZM644.627 308.656C643.561 308.656 642.768 308.417 642.248 307.941C641.728 307.455 641.468 306.827 641.468 306.056C641.468 305.016 641.944 304.305 642.898 303.924C642.499 303.716 642.196 303.438 641.988 303.092C641.788 302.736 641.689 302.342 641.689 301.909C641.689 301.441 641.801 301.02 642.027 300.648C642.252 300.275 642.581 299.98 643.015 299.764C643.457 299.538 643.994 299.426 644.627 299.426C645.251 299.426 645.784 299.538 646.226 299.764C646.668 299.98 646.997 300.275 647.214 300.648C647.439 301.02 647.552 301.441 647.552 301.909C647.552 302.342 647.448 302.736 647.24 303.092C647.04 303.438 646.741 303.716 646.343 303.924C647.305 304.305 647.786 305.016 647.786 306.056C647.786 306.827 647.521 307.455 646.993 307.941C646.473 308.417 645.684 308.656 644.627 308.656ZM644.627 303.313C645.051 303.313 645.385 303.2 645.628 302.975C645.87 302.749 645.992 302.429 645.992 302.013C645.992 301.597 645.87 301.272 645.628 301.038C645.385 300.804 645.051 300.687 644.627 300.687C644.193 300.687 643.855 300.804 643.613 301.038C643.379 301.263 643.262 301.588 643.262 302.013C643.262 302.429 643.379 302.749 643.613 302.975C643.855 303.2 644.193 303.313 644.627 303.313ZM644.627 307.395C645.121 307.395 645.502 307.269 645.771 307.018C646.039 306.766 646.174 306.42 646.174 305.978C646.174 305.536 646.039 305.193 645.771 304.951C645.502 304.699 645.121 304.574 644.627 304.574C644.124 304.574 643.738 304.699 643.47 304.951C643.201 305.193 643.067 305.536 643.067 305.978C643.067 306.428 643.201 306.779 643.47 307.031C643.738 307.273 644.124 307.395 644.627 307.395Z" fill="white"/>
<path d="M608.66 315.14H609.69L611.5 320.13L611.84 321.05H611.89L612.21 320.17L614.03 315.14H615.01L612.46 322H611.21L608.66 315.14ZM615.664 314.77H616.534V315.72H615.664V314.77ZM615.664 316.74H616.544V322H615.664V316.74ZM619.681 322.12C619.194 322.12 618.788 322.05 618.461 321.91C618.141 321.763 617.904 321.573 617.751 321.34C617.598 321.106 617.521 320.853 617.521 320.58C617.521 320.5 617.521 320.446 617.521 320.42C617.528 320.386 617.531 320.366 617.531 320.36H618.401V320.46C618.401 320.773 618.524 321.01 618.771 321.17C619.018 321.323 619.338 321.4 619.731 321.4C620.071 321.4 620.351 321.333 620.571 321.2C620.798 321.06 620.911 320.866 620.911 320.62C620.911 320.426 620.848 320.27 620.721 320.15C620.594 320.023 620.438 319.926 620.251 319.86C620.064 319.786 619.811 319.71 619.491 319.63C619.104 319.53 618.788 319.43 618.541 319.33C618.301 319.23 618.094 319.083 617.921 318.89C617.754 318.69 617.671 318.433 617.671 318.12C617.671 317.66 617.858 317.296 618.231 317.03C618.611 316.756 619.121 316.62 619.761 316.62C620.161 316.62 620.508 316.686 620.801 316.82C621.094 316.946 621.314 317.12 621.461 317.34C621.614 317.553 621.691 317.793 621.691 318.06L621.681 318.25H620.821V318.16C620.821 317.926 620.728 317.733 620.541 317.58C620.361 317.426 620.068 317.35 619.661 317.35C619.261 317.35 618.981 317.423 618.821 317.57C618.661 317.71 618.581 317.873 618.581 318.06C618.581 318.213 618.638 318.34 618.751 318.44C618.864 318.54 619.004 318.62 619.171 318.68C619.338 318.74 619.571 318.806 619.871 318.88C620.284 318.986 620.621 319.093 620.881 319.2C621.141 319.3 621.361 319.456 621.541 319.67C621.728 319.876 621.821 320.153 621.821 320.5C621.821 321.04 621.624 321.446 621.231 321.72C620.844 321.986 620.328 322.12 619.681 322.12ZM622.881 314.77H623.751V315.72H622.881V314.77ZM622.881 316.74H623.761V322H622.881V316.74ZM626.288 322.11C625.928 322.11 625.664 322.003 625.498 321.79C625.331 321.576 625.248 321.313 625.248 321V317.47H624.608V316.74H625.258L625.448 315.28H626.128V316.74H627.018V317.47H626.128V320.92C626.128 321.233 626.274 321.39 626.568 321.39H627.018V321.97C626.931 322.01 626.818 322.043 626.678 322.07C626.538 322.096 626.408 322.11 626.288 322.11ZM629.991 322.12C629.184 322.12 628.578 321.896 628.171 321.45C627.764 320.996 627.561 320.303 627.561 319.37C627.561 318.436 627.764 317.746 628.171 317.3C628.578 316.846 629.184 316.62 629.991 316.62C630.798 316.62 631.404 316.846 631.811 317.3C632.218 317.746 632.421 318.436 632.421 319.37C632.421 320.303 632.218 320.996 631.811 321.45C631.404 321.896 630.798 322.12 629.991 322.12ZM629.991 321.39C630.524 321.39 630.911 321.236 631.151 320.93C631.391 320.616 631.511 320.11 631.511 319.41V319.33C631.511 318.63 631.391 318.126 631.151 317.82C630.911 317.506 630.524 317.35 629.991 317.35C629.458 317.35 629.071 317.506 628.831 317.82C628.591 318.126 628.471 318.63 628.471 319.33V319.41C628.471 320.11 628.591 320.616 628.831 320.93C629.071 321.236 629.458 321.39 629.991 321.39ZM633.438 316.74H634.108L634.208 317.53H634.268C634.368 317.27 634.518 317.053 634.718 316.88C634.918 316.706 635.181 316.62 635.508 316.62C635.688 316.62 635.844 316.646 635.978 316.7V317.55H635.608C635.234 317.55 634.924 317.66 634.678 317.88C634.438 318.093 634.318 318.43 634.318 318.89V322H633.438V316.74ZM638.568 322.12C638.081 322.12 637.674 322.05 637.348 321.91C637.028 321.763 636.791 321.573 636.638 321.34C636.484 321.106 636.408 320.853 636.408 320.58C636.408 320.5 636.408 320.446 636.408 320.42C636.414 320.386 636.418 320.366 636.418 320.36H637.288V320.46C637.288 320.773 637.411 321.01 637.658 321.17C637.904 321.323 638.224 321.4 638.618 321.4C638.958 321.4 639.238 321.333 639.458 321.2C639.684 321.06 639.798 320.866 639.798 320.62C639.798 320.426 639.734 320.27 639.608 320.15C639.481 320.023 639.324 319.926 639.138 319.86C638.951 319.786 638.698 319.71 638.378 319.63C637.991 319.53 637.674 319.43 637.428 319.33C637.188 319.23 636.981 319.083 636.808 318.89C636.641 318.69 636.558 318.433 636.558 318.12C636.558 317.66 636.744 317.296 637.118 317.03C637.498 316.756 638.008 316.62 638.648 316.62C639.048 316.62 639.394 316.686 639.688 316.82C639.981 316.946 640.201 317.12 640.348 317.34C640.501 317.553 640.578 317.793 640.578 318.06L640.568 318.25H639.708V318.16C639.708 317.926 639.614 317.733 639.428 317.58C639.248 317.426 638.954 317.35 638.548 317.35C638.148 317.35 637.868 317.423 637.708 317.57C637.548 317.71 637.468 317.873 637.468 318.06C637.468 318.213 637.524 318.34 637.638 318.44C637.751 318.54 637.891 318.62 638.058 318.68C638.224 318.74 638.458 318.806 638.758 318.88C639.171 318.986 639.508 319.093 639.768 319.2C640.028 319.3 640.248 319.456 640.428 319.67C640.614 319.876 640.708 320.153 640.708 320.5C640.708 321.04 640.511 321.446 640.118 321.72C639.731 321.986 639.214 322.12 638.568 322.12Z" fill="white"/>
</g>
</g>
<g filter="url(#filter3_d_0_660)">
<path d="M152.004 84.0004C152.004 75.1638 159.167 68.0004 168.004 68.0004H486.004C494.84 68.0004 502.004 75.1638 502.004 84.0004V355.662C502.004 362.932 497.175 369.268 490.139 371.096C453.381 380.645 342.969 409 328 409C313.017 409 201.037 380.593 163.918 371.07C156.858 369.259 152.004 362.911 152.004 355.622V84.0004Z" fill="white"/>
</g>
<g filter="url(#filter4_d_0_660)">
<circle cx="325" cy="234.002" r="22.5" stroke="#E3E1E2"/>
<path d="M297.944 322.29C296.68 322.29 295.528 322.106 294.488 321.738C293.448 321.37 292.616 320.81 291.992 320.058C291.368 319.29 291.056 318.346 291.056 317.226L291.08 316.722H294.176C294.16 316.818 294.152 316.962 294.152 317.154C294.152 317.954 294.496 318.578 295.184 319.026C295.872 319.474 296.816 319.698 298.016 319.698C299.296 319.698 300.248 319.514 300.872 319.146C301.496 318.778 301.808 318.266 301.808 317.61C301.808 317.098 301.624 316.674 301.256 316.338C300.888 316.002 300.432 315.738 299.888 315.546C299.344 315.338 298.576 315.098 297.584 314.826C296.272 314.474 295.208 314.138 294.392 313.818C293.592 313.482 292.904 312.994 292.328 312.354C291.752 311.698 291.464 310.842 291.464 309.786C291.464 308.314 292.072 307.194 293.288 306.426C294.504 305.642 296.096 305.25 298.064 305.25C299.952 305.25 301.488 305.65 302.672 306.45C303.872 307.234 304.472 308.426 304.472 310.026V310.314H301.448V310.05C301.448 309.362 301.136 308.826 300.512 308.442C299.904 308.042 299.08 307.842 298.04 307.842C296.952 307.842 296.096 308.002 295.472 308.322C294.864 308.642 294.56 309.09 294.56 309.666C294.56 310.098 294.736 310.466 295.088 310.77C295.44 311.058 295.88 311.298 296.408 311.49C296.952 311.666 297.68 311.874 298.592 312.114C299.92 312.466 301 312.81 301.832 313.146C302.68 313.482 303.4 313.978 303.992 314.634C304.6 315.29 304.904 316.138 304.904 317.178C304.904 318.938 304.28 320.234 303.032 321.066C301.784 321.882 300.088 322.29 297.944 322.29ZM307.688 309.378H310.064L310.304 311.058H310.448C310.864 310.418 311.408 309.93 312.08 309.594C312.752 309.258 313.496 309.09 314.312 309.09C315.912 309.09 317.152 309.634 318.032 310.722C318.912 311.81 319.352 313.474 319.352 315.714C319.352 317.89 318.912 319.53 318.032 320.634C317.152 321.738 315.976 322.29 314.504 322.29C312.744 322.29 311.48 321.706 310.712 320.538H310.568V326.154H307.688V309.378ZM313.448 319.818C314.504 319.818 315.256 319.506 315.704 318.882C316.152 318.242 316.376 317.234 316.376 315.858V315.546C316.376 314.154 316.152 313.146 315.704 312.522C315.256 311.882 314.504 311.562 313.448 311.562C312.456 311.562 311.728 311.898 311.264 312.57C310.8 313.242 310.568 314.234 310.568 315.546V315.834C310.568 317.146 310.8 318.138 311.264 318.81C311.728 319.482 312.456 319.818 313.448 319.818ZM327.147 322.29C325.099 322.29 323.579 321.754 322.587 320.682C321.595 319.61 321.099 317.946 321.099 315.69C321.099 313.434 321.595 311.77 322.587 310.698C323.595 309.626 325.115 309.09 327.147 309.09C329.003 309.09 330.387 309.61 331.299 310.65C332.227 311.69 332.691 313.314 332.691 315.522V316.386H324.027C324.075 317.634 324.339 318.554 324.819 319.146C325.315 319.722 326.099 320.01 327.171 320.01C327.971 320.01 328.619 319.81 329.115 319.41C329.611 318.994 329.859 318.386 329.859 317.586H332.691C332.691 319.138 332.179 320.314 331.155 321.114C330.131 321.898 328.795 322.29 327.147 322.29ZM329.691 314.346C329.691 312.362 328.843 311.37 327.147 311.37C326.187 311.37 325.459 311.618 324.963 312.114C324.483 312.594 324.187 313.338 324.075 314.346H329.691ZM340.483 322.29C338.435 322.29 336.915 321.754 335.923 320.682C334.931 319.61 334.435 317.946 334.435 315.69C334.435 313.434 334.931 311.77 335.923 310.698C336.931 309.626 338.451 309.09 340.483 309.09C342.339 309.09 343.723 309.61 344.635 310.65C345.563 311.69 346.027 313.314 346.027 315.522V316.386H337.363C337.411 317.634 337.675 318.554 338.155 319.146C338.651 319.722 339.435 320.01 340.507 320.01C341.307 320.01 341.955 319.81 342.451 319.41C342.947 318.994 343.195 318.386 343.195 317.586H346.027C346.027 319.138 345.515 320.314 344.491 321.114C343.467 321.898 342.131 322.29 340.483 322.29ZM343.027 314.346C343.027 312.362 342.179 311.37 340.483 311.37C339.523 311.37 338.795 311.618 338.299 312.114C337.819 312.594 337.523 313.338 337.411 314.346H343.027ZM352.787 322.29C351.187 322.29 349.947 321.746 349.067 320.658C348.187 319.57 347.747 317.906 347.747 315.666C347.747 313.49 348.187 311.85 349.067 310.746C349.947 309.642 351.123 309.09 352.595 309.09C354.355 309.09 355.619 309.674 356.387 310.842H356.531V304.65H359.411V322.002H357.035L356.795 320.322H356.651C356.235 320.962 355.691 321.45 355.019 321.786C354.347 322.122 353.603 322.29 352.787 322.29ZM353.651 319.818C354.643 319.818 355.371 319.49 355.835 318.834C356.299 318.162 356.531 317.17 356.531 315.858V315.57C356.531 312.898 355.571 311.562 353.651 311.562C352.595 311.562 351.843 311.882 351.395 312.522C350.947 313.146 350.723 314.154 350.723 315.546V315.858C350.723 317.234 350.947 318.242 351.395 318.882C351.843 319.506 352.595 319.818 353.651 319.818Z" fill="black"/>
<path d="M299.096 171.77H300.752L302.516 176.798C302.588 176.99 302.696 177.306 302.84 177.746C302.944 178.074 303.004 178.254 303.02 178.286H303.08C303.288 177.598 303.448 177.098 303.56 176.786L305.312 171.77H306.896L303.896 180.002H302.108L299.096 171.77ZM310.261 180.146C309.237 180.146 308.477 179.878 307.981 179.342C307.485 178.806 307.237 177.974 307.237 176.846C307.237 175.718 307.485 174.886 307.981 174.35C308.485 173.814 309.245 173.546 310.261 173.546C311.189 173.546 311.881 173.806 312.337 174.326C312.801 174.846 313.033 175.658 313.033 176.762V177.194H308.701C308.725 177.818 308.857 178.278 309.097 178.574C309.345 178.862 309.737 179.006 310.273 179.006C310.673 179.006 310.997 178.906 311.245 178.706C311.493 178.498 311.617 178.194 311.617 177.794H313.033C313.033 178.57 312.777 179.158 312.265 179.558C311.753 179.95 311.085 180.146 310.261 180.146ZM311.533 176.174C311.533 175.182 311.109 174.686 310.261 174.686C309.781 174.686 309.417 174.81 309.169 175.058C308.929 175.298 308.781 175.67 308.725 176.174H311.533ZM314.301 173.69H315.489L315.621 174.686H315.705C315.993 173.926 316.465 173.546 317.121 173.546C317.345 173.546 317.545 173.582 317.721 173.654V175.01H317.265C316.249 175.01 315.741 175.578 315.741 176.714V180.002H314.301V173.69ZM319.57 182.186C319.234 182.186 318.982 182.162 318.814 182.114C318.646 182.074 318.558 182.054 318.55 182.054V181.058H319.198C319.51 181.058 319.77 180.974 319.978 180.806C320.194 180.646 320.362 180.378 320.482 180.002L318.022 173.69H319.534L320.722 176.726C320.858 177.086 321.034 177.67 321.25 178.478H321.31C321.51 177.71 321.674 177.126 321.802 176.726L322.762 173.69H324.214L322.114 179.678C321.826 180.486 321.494 181.106 321.118 181.538C320.742 181.97 320.226 182.186 319.57 182.186ZM328.54 171.77H334.456V173.078H330.076V175.31H334.023V176.618H330.076V180.002H328.54V171.77ZM336.919 180.146C336.407 180.146 335.943 180.022 335.527 179.774C335.119 179.518 334.915 179.05 334.915 178.37C334.915 177.562 335.259 176.994 335.947 176.666C336.635 176.338 337.611 176.174 338.875 176.174V175.646C338.875 175.342 338.795 175.106 338.635 174.938C338.483 174.77 338.203 174.686 337.795 174.686C337.371 174.686 337.071 174.754 336.895 174.89C336.719 175.026 336.631 175.194 336.631 175.394V175.562H335.239C335.231 175.514 335.227 175.426 335.227 175.298C335.227 174.754 335.459 174.326 335.923 174.014C336.395 173.702 337.019 173.546 337.795 173.546C338.635 173.546 339.263 173.718 339.679 174.062C340.103 174.406 340.315 174.898 340.315 175.538V178.55C340.315 178.694 340.355 178.802 340.435 178.874C340.515 178.938 340.615 178.97 340.735 178.97H341.119V179.954C340.863 180.074 340.563 180.134 340.219 180.134C339.907 180.134 339.647 180.058 339.439 179.906C339.231 179.754 339.091 179.546 339.019 179.282H338.935C338.463 179.858 337.791 180.146 336.919 180.146ZM337.351 178.994C337.823 178.994 338.195 178.858 338.467 178.586C338.739 178.314 338.875 177.946 338.875 177.482V177.194C338.099 177.194 337.491 177.27 337.051 177.422C336.611 177.566 336.391 177.834 336.391 178.226C336.391 178.738 336.711 178.994 337.351 178.994ZM344.439 180.146C343.567 180.146 342.891 179.966 342.411 179.606C341.939 179.246 341.703 178.778 341.703 178.202C341.703 178.13 341.703 178.082 341.703 178.058C341.711 178.034 341.715 178.018 341.715 178.01H343.119V178.106C343.127 178.418 343.259 178.65 343.515 178.802C343.779 178.946 344.107 179.018 344.499 179.018C344.851 179.018 345.151 178.962 345.399 178.85C345.647 178.73 345.771 178.554 345.771 178.322C345.771 178.138 345.703 177.99 345.567 177.878C345.431 177.758 345.263 177.666 345.063 177.602C344.863 177.53 344.579 177.45 344.211 177.362C343.715 177.242 343.307 177.122 342.987 177.002C342.675 176.882 342.407 176.694 342.183 176.438C341.959 176.182 341.847 175.846 341.847 175.43C341.847 174.83 342.095 174.366 342.591 174.038C343.087 173.71 343.731 173.546 344.523 173.546C345.011 173.546 345.447 173.618 345.831 173.762C346.215 173.906 346.511 174.11 346.719 174.374C346.935 174.63 347.043 174.926 347.043 175.262L347.031 175.526H345.627V175.478C345.627 175.23 345.523 175.038 345.315 174.902C345.115 174.758 344.823 174.686 344.439 174.686C344.063 174.686 343.779 174.746 343.587 174.866C343.395 174.978 343.299 175.126 343.299 175.31C343.299 175.534 343.415 175.702 343.647 175.814C343.887 175.918 344.251 176.022 344.739 176.126C345.267 176.246 345.691 176.37 346.011 176.498C346.339 176.618 346.623 176.81 346.863 177.074C347.103 177.338 347.223 177.694 347.223 178.142C347.223 178.838 346.971 179.346 346.467 179.666C345.971 179.986 345.295 180.146 344.439 180.146ZM350.092 180.146C349.556 180.146 349.168 179.998 348.928 179.702C348.696 179.398 348.58 179.022 348.58 178.574V174.866H347.812V173.69H348.604L348.868 171.926H350.02V173.69H351.1V174.866H350.02V178.43C350.02 178.79 350.192 178.97 350.536 178.97H351.1V179.954C350.972 180.002 350.812 180.046 350.62 180.086C350.428 180.126 350.252 180.146 350.092 180.146Z" fill="#FB4247"/>
<ellipse cx="323.485" cy="233.08" rx="4.44447" ry="4.44447" transform="rotate(119.819 323.485 233.08)" fill="black"/>
<path d="M390.484 272.199L325.858 229.29L321.427 237.021L390.484 272.199Z" fill="black"/>
<path d="M213.509 303.39C203.479 285.127 197.734 264.125 197.734 241.844C197.734 171.257 254.905 114.002 325.388 114.002C395.87 114.002 453.041 171.257 453.041 241.844C453.041 263.942 447.479 284.671 437.631 302.751" stroke="#E3E1E2" stroke-width="8" stroke-linecap="round"/>
<path d="M213.509 303.39C203.479 285.127 197.734 264.125 197.734 241.844C197.734 171.257 254.905 114.002 325.388 114.002C395.87 114.002 453.041 171.257 453.041 241.844C453.041 263.942 447.479 284.671 437.631 302.751" stroke="url(#paint8_angular_0_660)" stroke-width="12" stroke-linecap="round"/>
<path d="M326.305 142.546V136.893" stroke="#E3E1E2" stroke-width="1.5" stroke-linecap="round"/>
<path d="M305.952 144.43L304.699 138.777" stroke="#E3E1E2" stroke-width="1.5" stroke-linecap="round"/>
<path d="M287.164 150.711L285.285 145.686" stroke="#E3E1E2" stroke-width="1.5" stroke-linecap="round"/>
<path d="M270.882 160.76L267.125 155.735" stroke="#E3E1E2" stroke-width="1.5" stroke-linecap="round"/>
<path d="M255.852 173.949L251.469 169.553" stroke="#E3E1E2" stroke-width="1.5" stroke-linecap="round"/>
<path d="M243.33 190.279L238.32 186.511" stroke="#E3E1E2" stroke-width="1.5" stroke-linecap="round"/>
<path d="M234.562 207.237L228.926 205.353" stroke="#E3E1E2" stroke-width="1.5" stroke-linecap="round"/>
<path d="M228.925 226.079L223.289 225.451" stroke="#E3E1E2" stroke-width="1.5" stroke-linecap="round"/>
<path d="M228.3 246.303L222.664 246.68" stroke="#E3E1E2" stroke-width="1.5" stroke-linecap="round"/>
<path d="M232.058 266.276L226.422 267.532" stroke="#E3E1E2" stroke-width="1.5" stroke-linecap="round"/>
<path d="M239.572 285.118L234.562 288.258" stroke="#E3E1E2" stroke-width="1.5" stroke-linecap="round"/>
<path d="M346.031 144.43L347.284 138.777" stroke="#E3E1E2" stroke-width="1.5" stroke-linecap="round"/>
<path d="M364.816 150.711L366.695 145.686" stroke="#E3E1E2" stroke-width="1.5" stroke-linecap="round"/>
<path d="M381.098 160.76L384.855 155.735" stroke="#E3E1E2" stroke-width="1.5" stroke-linecap="round"/>
<path d="M396.129 173.949L400.512 169.553" stroke="#E3E1E2" stroke-width="1.5" stroke-linecap="round"/>
<path d="M408.652 190.279L413.662 186.511" stroke="#E3E1E2" stroke-width="1.5" stroke-linecap="round"/>
<path d="M417.418 207.237L423.054 205.353" stroke="#E3E1E2" stroke-width="1.5" stroke-linecap="round"/>
<path d="M423.055 226.079L428.691 225.451" stroke="#E3E1E2" stroke-width="1.5" stroke-linecap="round"/>
<path d="M423.68 246.303L429.316 246.68" stroke="#E3E1E2" stroke-width="1.5" stroke-linecap="round"/>
<path d="M419.922 266.276L425.558 267.532" stroke="#E3E1E2" stroke-width="1.5" stroke-linecap="round"/>
<path d="M412.41 285.118L417.42 288.258" stroke="#E3E1E2" stroke-width="1.5" stroke-linecap="round"/>
<g filter="url(#filter5_d_0_660)">
<path d="M439.524 304.727C443.78 304.727 447.231 301.266 447.231 296.997C447.231 292.727 443.78 289.266 439.524 289.266C435.267 289.266 431.816 292.727 431.816 296.997C431.816 301.266 435.267 304.727 439.524 304.727Z" fill="black"/>
</g>
<path d="M438.397 310.905C444.782 310.905 449.958 305.714 449.958 299.31C449.958 292.906 444.782 287.715 438.397 287.715C432.012 287.715 426.836 292.906 426.836 299.31C426.836 305.714 432.012 310.905 438.397 310.905Z" fill="#FB4247" stroke="white" stroke-width="8"/>
</g>
<defs>
<filter id="filter0_b_0_660" x="181.414" y="124.414" width="176.023" height="176.021" filterUnits="userSpaceOnUse" color-interpolation-filters="sRGB">
<feFlood flood-opacity="0" result="BackgroundImageFix"/>
<feGaussianBlur in="BackgroundImageFix" stdDeviation="12"/>
<feComposite in2="SourceAlpha" operator="in" result="effect1_backgroundBlur_0_660"/>
<feBlend mode="normal" in="SourceGraphic" in2="effect1_backgroundBlur_0_660" result="shape"/>
</filter>
<filter id="filter1_d_0_660" x="300" y="141" width="534" height="485" filterUnits="userSpaceOnUse" color-interpolation-filters="sRGB">
<feFlood flood-opacity="0" result="BackgroundImageFix"/>
<feColorMatrix in="SourceAlpha" type="matrix" values="0 0 0 0 0 0 0 0 0 0 0 0 0 0 0 0 0 0 127 0" result="hardAlpha"/>
<feMorphology radius="8" operator="erode" in="SourceAlpha" result="effect1_dropShadow_0_660"/>
<feOffset dy="24"/>
<feGaussianBlur stdDeviation="50"/>
<feColorMatrix type="matrix" values="0 0 0 0 0 0 0 0 0 0 0 0 0 0 0 0 0 0 0.1 0"/>
<feBlend mode="normal" in2="BackgroundImageFix" result="effect1_dropShadow_0_660"/>
<feBlend mode="normal" in="SourceGraphic" in2="effect1_dropShadow_0_660" result="shape"/>
</filter>
<filter id="filter2_d_0_660" x="680" y="288.324" width="48.1797" height="48.225" filterUnits="userSpaceOnUse" color-interpolation-filters="sRGB">
<feFlood flood-opacity="0" result="BackgroundImageFix"/>
<feColorMatrix in="SourceAlpha" type="matrix" values="0 0 0 0 0 0 0 0 0 0 0 0 0 0 0 0 0 0 127 0" result="hardAlpha"/>
<feOffset dy="2"/>
<feGaussianBlur stdDeviation="6"/>
<feColorMatrix type="matrix" values="0 0 0 0 0.256667 0 0 0 0 0.35 0 0 0 0 0.346175 0 0 0 0.02 0"/>
<feBlend mode="normal" in2="BackgroundImageFix" result="effect1_dropShadow_0_660"/>
<feBlend mode="normal" in="SourceGraphic" in2="effect1_dropShadow_0_660" result="shape"/>
</filter>
<filter id="filter3_d_0_660" x="60.0039" y="0.000366211" width="534" height="525" filterUnits="userSpaceOnUse" color-interpolation-filters="sRGB">
<feFlood flood-opacity="0" result="BackgroundImageFix"/>
<feColorMatrix in="SourceAlpha" type="matrix" values="0 0 0 0 0 0 0 0 0 0 0 0 0 0 0 0 0 0 127 0" result="hardAlpha"/>
<feMorphology radius="8" operator="erode" in="SourceAlpha" result="effect1_dropShadow_0_660"/>
<feOffset dy="24"/>
<feGaussianBlur stdDeviation="50"/>
<feColorMatrix type="matrix" values="0 0 0 0 0 0 0 0 0 0 0 0 0 0 0 0 0 0 0.1 0"/>
<feBlend mode="normal" in2="BackgroundImageFix" result="effect1_dropShadow_0_660"/>
<feBlend mode="normal" in="SourceGraphic" in2="effect1_dropShadow_0_660" result="shape"/>
</filter>
<filter id="filter4_d_0_660" x="61" y="-0.999268" width="534" height="485" filterUnits="userSpaceOnUse" color-interpolation-filters="sRGB">
<feFlood flood-opacity="0" result="BackgroundImageFix"/>
<feColorMatrix in="SourceAlpha" type="matrix" values="0 0 0 0 0 0 0 0 0 0 0 0 0 0 0 0 0 0 127 0" result="hardAlpha"/>
<feMorphology radius="8" operator="erode" in="SourceAlpha" result="effect1_dropShadow_0_660"/>
<feOffset dy="24"/>
<feGaussianBlur stdDeviation="50"/>
<feColorMatrix type="matrix" values="0 0 0 0 0 0 0 0 0 0 0 0 0 0 0 0 0 0 0.1 0"/>
<feBlend mode="normal" in2="BackgroundImageFix" result="effect1_dropShadow_0_660"/>
<feBlend mode="normal" in="SourceGraphic" in2="effect1_dropShadow_0_660" result="shape"/>
</filter>
<filter id="filter5_d_0_660" x="411.816" y="277.266" width="55.4141" height="55.4602" filterUnits="userSpaceOnUse" color-interpolation-filters="sRGB">
<feFlood flood-opacity="0" result="BackgroundImageFix"/>
<feColorMatrix in="SourceAlpha" type="matrix" values="0 0 0 0 0 0 0 0 0 0 0 0 0 0 0 0 0 0 127 0" result="hardAlpha"/>
<feOffset dy="8"/>
<feGaussianBlur stdDeviation="10"/>
<feColorMatrix type="matrix" values="0 0 0 0 0 0 0 0 0 0 0 0 0 0 0 0 0 0 0.4 0"/>
<feBlend mode="normal" in2="BackgroundImageFix" result="effect1_dropShadow_0_660"/>
<feBlend mode="normal" in="SourceGraphic" in2="effect1_dropShadow_0_660" result="shape"/>
</filter>
<linearGradient id="paint0_linear_0_660" x1="66.388" y1="272.5" x2="154.232" y2="272.501" gradientUnits="userSpaceOnUse">
<stop stop-color="#DBD6D8" stop-opacity="0.43"/>
<stop offset="1" stop-color="#DBD6D8" stop-opacity="0"/>
</linearGradient>
<linearGradient id="paint1_linear_0_660" x1="234" y1="508" x2="470.626" y2="508.003" gradientUnits="userSpaceOnUse">
<stop stop-color="#DBD6D8" stop-opacity="0.43"/>
<stop offset="1" stop-color="#DBD6D8" stop-opacity="0"/>
</linearGradient>
<linearGradient id="paint2_linear_0_660" x1="529.867" y1="422.081" x2="20.6564" y2="419.797" gradientUnits="userSpaceOnUse">
<stop stop-color="white" stop-opacity="0"/>
<stop offset="1" stop-color="#AEB0C0" stop-opacity="0.58"/>
</linearGradient>
<linearGradient id="paint3_linear_0_660" x1="99.8127" y1="173" x2="204.276" y2="173" gradientUnits="userSpaceOnUse">
<stop stop-color="#DBD6D8" stop-opacity="0.43"/>
<stop offset="1" stop-color="#DBD6D8" stop-opacity="0"/>
</linearGradient>
<linearGradient id="paint4_linear_0_660" x1="1024.97" y1="87.1273" x2="388.367" y2="86.9995" gradientUnits="userSpaceOnUse">
<stop stop-color="#DBD6D8"/>
<stop offset="1" stop-color="#DBD6D8" stop-opacity="0"/>
</linearGradient>
<linearGradient id="paint5_linear_0_660" x1="579.351" y1="87.9442" x2="672.377" y2="87.5949" gradientUnits="userSpaceOnUse">
<stop stop-color="white"/>
<stop offset="1" stop-color="white"/>
</linearGradient>
<linearGradient id="paint6_linear_0_660" x1="190.566" y1="206.666" x2="389.29" y2="210.866" gradientUnits="userSpaceOnUse">
<stop stop-color="#FB4247"/>
<stop offset="1" stop-color="#FB4247" stop-opacity="0"/>
</linearGradient>
<linearGradient id="paint7_linear_0_660" x1="579" y1="310" x2="579" y2="463" gradientUnits="userSpaceOnUse">
<stop stop-color="#1AC3DA" stop-opacity="0.29"/>
<stop offset="1" stop-color="#1AC3DA" stop-opacity="0"/>
</linearGradient>
<radialGradient id="paint8_angular_0_660" cx="0" cy="0" r="1" gradientUnits="userSpaceOnUse" gradientTransform="translate(324.906 241.674) rotate(90) scale(93.348 93.3978)">
<stop offset="0.176958" stop-color="#1AC3DA"/>
<stop offset="0.822215" stop-color="#FB4247"/>
</radialGradient>
<clipPath id="clip0_0_660">
<rect x="392" y="209" width="350" height="301" rx="16" fill="white"/>
</clipPath>
</defs>
</svg>
