<svg width="375" height="660" viewBox="0 0 375 660" fill="none" xmlns="http://www.w3.org/2000/svg">
<mask id="mask0_1_915" style="mask-type:alpha" maskUnits="userSpaceOnUse" x="0" y="0" width="375" height="660">
<rect width="375" height="660" fill="#F9F9FB"/>
</mask>
<g mask="url(#mask0_1_915)">
<rect width="375" height="660" fill="#F9F9FB"/>
<path opacity="0.5" fill-rule="evenodd" clip-rule="evenodd" d="M75.1445 195.932C75.1445 211.912 62.1909 224.865 46.2118 224.865L-33.0662 224.865C-49.0454 224.865 -61.999 211.912 -61.999 195.932C-61.999 179.953 -49.0454 167 -33.0662 167L46.2118 167C62.1909 167 75.1445 179.953 75.1445 195.932Z" fill="url(#paint0_linear_1_915)"/>
<rect x="-25" y="540" width="67.6889" height="27.2776" rx="13.6388" fill="url(#paint1_linear_1_915)"/>
<rect x="40" y="211" width="67.6889" height="27.2776" rx="13.6388" fill="url(#paint2_linear_1_915)"/>
<path opacity="0.5" fill-rule="evenodd" clip-rule="evenodd" d="M321 139.933C321 123.954 333.954 111 349.933 111H555.275C571.254 111 584.208 123.954 584.208 139.933C584.208 155.912 571.254 168.865 555.275 168.865H349.933C333.954 168.865 321 155.912 321 139.933Z" fill="url(#paint3_linear_1_915)"/>
<path opacity="0.5" fill-rule="evenodd" clip-rule="evenodd" d="M225 639.933C225 623.954 237.954 611 253.933 611H459.275C475.254 611 488.208 623.954 488.208 639.933C488.208 655.912 475.254 668.865 459.275 668.865H253.933C237.954 668.865 225 655.912 225 639.933Z" fill="url(#paint4_linear_1_915)"/>
<rect x="-168" y="557" width="268.735" height="144.47" rx="72.2352" stroke="url(#paint5_linear_1_915)" stroke-linecap="round"/>
<path opacity="0.2" fill-rule="evenodd" clip-rule="evenodd" d="M273.207 399.932C273.207 415.912 260.253 428.865 244.274 428.865L38.9322 428.865C22.9531 428.865 9.99942 415.912 9.99942 399.933C9.99942 383.953 22.9531 371 38.9322 371L244.274 371C260.253 371 273.207 383.953 273.207 399.932Z" fill="url(#paint6_linear_1_915)"/>
</g>
<defs>
<linearGradient id="paint0_linear_1_915" x1="225.507" y1="195.99" x2="-62.286" y2="195.932" gradientUnits="userSpaceOnUse">
<stop stop-color="#DBD6D8"/>
<stop offset="1" stop-color="#DBD6D8" stop-opacity="0"/>
</linearGradient>
<linearGradient id="paint1_linear_1_915" x1="-10.7378" y1="553.639" x2="42.8306" y2="553.64" gradientUnits="userSpaceOnUse">
<stop stop-color="#DBD6D8" stop-opacity="0"/>
<stop offset="1" stop-color="#DBD6D8" stop-opacity="0.43"/>
</linearGradient>
<linearGradient id="paint2_linear_1_915" x1="54.2622" y1="224.639" x2="107.831" y2="224.64" gradientUnits="userSpaceOnUse">
<stop stop-color="#DBD6D8" stop-opacity="0"/>
<stop offset="1" stop-color="#DBD6D8" stop-opacity="0.43"/>
</linearGradient>
<linearGradient id="paint3_linear_1_915" x1="320.92" y1="139.933" x2="557.445" y2="139.933" gradientUnits="userSpaceOnUse">
<stop stop-color="#DBD6D8"/>
<stop offset="1" stop-color="#DBD6D8" stop-opacity="0"/>
</linearGradient>
<linearGradient id="paint4_linear_1_915" x1="224.92" y1="639.933" x2="461.445" y2="639.933" gradientUnits="userSpaceOnUse">
<stop stop-color="#DBD6D8"/>
<stop offset="1" stop-color="#DBD6D8" stop-opacity="0"/>
</linearGradient>
<linearGradient id="paint5_linear_1_915" x1="99.1525" y1="625.74" x2="-158.074" y2="625.087" gradientUnits="userSpaceOnUse">
<stop stop-color="#AEB0C0" stop-opacity="0.58"/>
<stop offset="1" stop-color="white" stop-opacity="0"/>
</linearGradient>
<linearGradient id="paint6_linear_1_915" x1="273.287" y1="399.932" x2="36.7622" y2="399.932" gradientUnits="userSpaceOnUse">
<stop stop-color="#DBD6D8"/>
<stop offset="1" stop-color="#DBD6D8" stop-opacity="0"/>
</linearGradient>
</defs>
</svg>
