<svg width="1600" height="704" viewBox="0 0 1600 704" fill="none" xmlns="http://www.w3.org/2000/svg">
<rect width="1600" height="500" fill="url(#paint0_linear_0_9571)"/>
<rect x="-176" y="148" width="624" height="178" rx="89" fill="url(#paint1_linear_0_9571)"/>
<circle opacity="0.5" cx="248" cy="330" r="45" stroke="url(#paint2_linear_0_9571)" stroke-width="2"/>
<circle opacity="0.5" cx="1351" cy="221" r="45" stroke="url(#paint3_linear_0_9571)" stroke-width="2"/>
<circle cx="1300" cy="658" r="45" stroke="white" stroke-width="2"/>
<rect width="624" height="178" rx="89" transform="matrix(-1 0 0 1 1932 197)" fill="url(#paint4_linear_0_9571)"/>
<rect width="251" height="100" rx="50" transform="matrix(-1 0 0 1 1737 148)" fill="url(#paint5_linear_0_9571)"/>
<rect x="-55" y="276" width="251" height="100" rx="50" fill="url(#paint6_linear_0_9571)"/>
<rect opacity="0.4" x="1087" y="317" width="211" height="51" rx="25.5" fill="url(#paint7_linear_0_9571)"/>
<defs>
<linearGradient id="paint0_linear_0_9571" x1="800" y1="0" x2="800" y2="500" gradientUnits="userSpaceOnUse">
<stop stop-color="#CCCCCC" stop-opacity="0.2"/>
<stop offset="1" stop-color="white" stop-opacity="0"/>
</linearGradient>
<linearGradient id="paint1_linear_0_9571" x1="-860.144" y1="236.822" x2="449.306" y2="237.211" gradientUnits="userSpaceOnUse">
<stop stop-color="#DBD6D8"/>
<stop offset="1" stop-color="#DBD6D8" stop-opacity="0"/>
</linearGradient>
<linearGradient id="paint2_linear_0_9571" x1="201.355" y1="330.945" x2="294.381" y2="330.595" gradientUnits="userSpaceOnUse">
<stop stop-color="#FF8C8F"/>
<stop offset="1" stop-color="#425CB4"/>
</linearGradient>
<linearGradient id="paint3_linear_0_9571" x1="1304.35" y1="221.945" x2="1397.38" y2="221.595" gradientUnits="userSpaceOnUse">
<stop stop-color="#FF8C8F"/>
<stop offset="1" stop-color="#425CB4"/>
</linearGradient>
<linearGradient id="paint4_linear_0_9571" x1="-684.144" y1="88.8223" x2="625.306" y2="89.2111" gradientUnits="userSpaceOnUse">
<stop stop-color="#DBD6D8"/>
<stop offset="1" stop-color="#DBD6D8" stop-opacity="0"/>
</linearGradient>
<linearGradient id="paint5_linear_0_9571" x1="-275.193" y1="49.9002" x2="251.525" y2="50.0122" gradientUnits="userSpaceOnUse">
<stop stop-color="#DBD6D8"/>
<stop offset="1" stop-color="#DBD6D8" stop-opacity="0"/>
</linearGradient>
<linearGradient id="paint6_linear_0_9571" x1="-330.193" y1="325.9" x2="196.525" y2="326.012" gradientUnits="userSpaceOnUse">
<stop stop-color="#DBD6D8"/>
<stop offset="1" stop-color="#DBD6D8" stop-opacity="0"/>
</linearGradient>
<linearGradient id="paint7_linear_0_9571" x1="855.663" y1="342.449" x2="1298.44" y2="342.604" gradientUnits="userSpaceOnUse">
<stop stop-color="#DBD6D8"/>
<stop offset="1" stop-color="#DBD6D8" stop-opacity="0"/>
</linearGradient>
</defs>
</svg>
